<svg xmlns="http://www.w3.org/2000/svg" xmlns:xlink="http://www.w3.org/1999/xlink" width="500" zoomAndPan="magnify" viewBox="0 0 375 374.999991" height="500" preserveAspectRatio="xMidYMid meet" version="1.0"><defs><g/><clipPath id="cf462b5d82"><path d="M 112.5 112.5 L 262.5 112.5 L 262.5 262.5 L 112.5 262.5 Z M 112.5 112.5 " clip-rule="nonzero"/></clipPath><clipPath id="c18ad46c37"><path d="M 187.5 112.5 C 188.726562 112.5 189.953125 112.53125 191.179688 112.589844 C 192.40625 112.652344 193.628906 112.742188 194.851562 112.859375 C 196.074219 112.980469 197.289062 113.132812 198.503906 113.3125 C 199.71875 113.492188 200.929688 113.703125 202.132812 113.941406 C 203.335938 114.179688 204.53125 114.449219 205.722656 114.746094 C 206.914062 115.046875 208.097656 115.375 209.269531 115.730469 C 210.445312 116.085938 211.609375 116.46875 212.765625 116.882812 C 213.921875 117.296875 215.066406 117.738281 216.203125 118.210938 C 217.335938 118.679688 218.457031 119.175781 219.566406 119.699219 C 220.675781 120.226562 221.773438 120.777344 222.855469 121.355469 C 223.9375 121.933594 225.003906 122.539062 226.058594 123.171875 C 227.109375 123.800781 228.148438 124.457031 229.167969 125.140625 C 230.1875 125.820312 231.191406 126.527344 232.175781 127.257812 C 233.164062 127.992188 234.128906 128.746094 235.078125 129.523438 C 236.027344 130.304688 236.957031 131.105469 237.867188 131.929688 C 238.777344 132.753906 239.664062 133.597656 240.53125 134.46875 C 241.402344 135.335938 242.246094 136.222656 243.070312 137.132812 C 243.894531 138.042969 244.695312 138.972656 245.476562 139.921875 C 246.253906 140.871094 247.007812 141.835938 247.742188 142.824219 C 248.472656 143.808594 249.179688 144.8125 249.859375 145.832031 C 250.542969 146.851562 251.199219 147.890625 251.828125 148.941406 C 252.460938 149.996094 253.066406 151.0625 253.644531 152.144531 C 254.222656 153.226562 254.773438 154.324219 255.300781 155.433594 C 255.824219 156.542969 256.320312 157.664062 256.789062 158.796875 C 257.261719 159.933594 257.703125 161.078125 258.117188 162.234375 C 258.53125 163.390625 258.914062 164.554688 259.269531 165.730469 C 259.625 166.902344 259.953125 168.085938 260.253906 169.277344 C 260.550781 170.46875 260.820312 171.664062 261.058594 172.867188 C 261.296875 174.070312 261.507812 175.28125 261.6875 176.496094 C 261.867188 177.710938 262.019531 178.925781 262.140625 180.148438 C 262.257812 181.371094 262.347656 182.59375 262.410156 183.820312 C 262.46875 185.046875 262.5 186.273438 262.5 187.5 C 262.5 188.726562 262.46875 189.953125 262.410156 191.179688 C 262.347656 192.40625 262.257812 193.628906 262.140625 194.851562 C 262.019531 196.074219 261.867188 197.289062 261.6875 198.503906 C 261.507812 199.71875 261.296875 200.929688 261.058594 202.132812 C 260.820312 203.335938 260.550781 204.53125 260.253906 205.722656 C 259.953125 206.914062 259.625 208.097656 259.269531 209.269531 C 258.914062 210.445312 258.53125 211.609375 258.117188 212.765625 C 257.703125 213.921875 257.261719 215.066406 256.789062 216.203125 C 256.320312 217.335938 255.824219 218.457031 255.300781 219.566406 C 254.773438 220.675781 254.222656 221.773438 253.644531 222.855469 C 253.066406 223.9375 252.460938 225.003906 251.828125 226.058594 C 251.199219 227.109375 250.542969 228.148438 249.859375 229.167969 C 249.179688 230.1875 248.472656 231.191406 247.742188 232.175781 C 247.007812 233.164062 246.253906 234.128906 245.476562 235.078125 C 244.695312 236.027344 243.894531 236.957031 243.070312 237.867188 C 242.246094 238.777344 241.402344 239.664062 240.53125 240.53125 C 239.664062 241.402344 238.777344 242.246094 237.867188 243.070312 C 236.957031 243.894531 236.027344 244.695312 235.078125 245.476562 C 234.128906 246.253906 233.164062 247.007812 232.175781 247.742188 C 231.191406 248.472656 230.1875 249.179688 229.167969 249.859375 C 228.148438 250.542969 227.109375 251.199219 226.058594 251.828125 C 225.003906 252.460938 223.9375 253.066406 222.855469 253.644531 C 221.773438 254.222656 220.675781 254.773438 219.566406 255.300781 C 218.457031 255.824219 217.335938 256.320312 216.203125 256.789062 C 215.066406 257.261719 213.921875 257.703125 212.765625 258.117188 C 211.609375 258.53125 210.445312 258.914062 209.269531 259.269531 C 208.097656 259.625 206.914062 259.953125 205.722656 260.253906 C 204.53125 260.550781 203.335938 260.820312 202.132812 261.058594 C 200.929688 261.296875 199.71875 261.507812 198.503906 261.6875 C 197.289062 261.867188 196.074219 262.019531 194.851562 262.140625 C 193.628906 262.257812 192.40625 262.347656 191.179688 262.410156 C 189.953125 262.46875 188.726562 262.5 187.5 262.5 C 186.273438 262.5 185.046875 262.46875 183.820312 262.410156 C 182.59375 262.347656 181.371094 262.257812 180.148438 262.140625 C 178.925781 262.019531 177.710938 261.867188 176.496094 261.6875 C 175.28125 261.507812 174.070312 261.296875 172.867188 261.058594 C 171.664062 260.820312 170.46875 260.550781 169.277344 260.253906 C 168.085938 259.953125 166.902344 259.625 165.730469 259.269531 C 164.554688 258.914062 163.390625 258.53125 162.234375 258.117188 C 161.078125 257.703125 159.933594 257.261719 158.796875 256.789062 C 157.664062 256.320312 156.542969 255.824219 155.433594 255.300781 C 154.324219 254.773438 153.226562 254.222656 152.144531 253.644531 C 151.0625 253.066406 149.996094 252.460938 148.941406 251.828125 C 147.890625 251.199219 146.851562 250.542969 145.832031 249.859375 C 144.8125 249.179688 143.808594 248.472656 142.824219 247.742188 C 141.835938 247.007812 140.871094 246.253906 139.921875 245.476562 C 138.972656 244.695312 138.042969 243.894531 137.132812 243.070312 C 136.222656 242.246094 135.335938 241.402344 134.46875 240.53125 C 133.597656 239.664062 132.753906 238.777344 131.929688 237.867188 C 131.105469 236.957031 130.304688 236.027344 129.523438 235.078125 C 128.746094 234.128906 127.992188 233.164062 127.257812 232.175781 C 126.527344 231.191406 125.820312 230.1875 125.140625 229.167969 C 124.457031 228.148438 123.800781 227.109375 123.171875 226.058594 C 122.539062 225.003906 121.933594 223.9375 121.355469 222.855469 C 120.777344 221.773438 120.226562 220.675781 119.699219 219.566406 C 119.175781 218.457031 118.679688 217.335938 118.210938 216.203125 C 117.738281 215.066406 117.296875 213.921875 116.882812 212.765625 C 116.46875 211.609375 116.085938 210.445312 115.730469 209.269531 C 115.375 208.097656 115.046875 206.914062 114.746094 205.722656 C 114.449219 204.53125 114.179688 203.335938 113.941406 202.132812 C 113.703125 200.929688 113.492188 199.71875 113.3125 198.503906 C 113.132812 197.289062 112.980469 196.074219 112.859375 194.851562 C 112.742188 193.628906 112.652344 192.40625 112.589844 191.179688 C 112.53125 189.953125 112.5 188.726562 112.5 187.5 C 112.5 186.273438 112.53125 185.046875 112.589844 183.820312 C 112.652344 182.59375 112.742188 181.371094 112.859375 180.148438 C 112.980469 178.925781 113.132812 177.710938 113.3125 176.496094 C 113.492188 175.28125 113.703125 174.070312 113.941406 172.867188 C 114.179688 171.664062 114.449219 170.46875 114.746094 169.277344 C 115.046875 168.085938 115.375 166.902344 115.730469 165.730469 C 116.085938 164.554688 116.46875 163.390625 116.882812 162.234375 C 117.296875 161.078125 117.738281 159.933594 118.210938 158.796875 C 118.679688 157.664062 119.175781 156.542969 119.699219 155.433594 C 120.226562 154.324219 120.777344 153.226562 121.355469 152.144531 C 121.933594 151.0625 122.539062 149.996094 123.171875 148.941406 C 123.800781 147.890625 124.457031 146.851562 125.140625 145.832031 C 125.820312 144.8125 126.527344 143.808594 127.257812 142.824219 C 127.992188 141.835938 128.746094 140.871094 129.523438 139.921875 C 130.304688 138.972656 131.105469 138.042969 131.929688 137.132812 C 132.753906 136.222656 133.597656 135.335938 134.46875 134.46875 C 135.335938 133.597656 136.222656 132.753906 137.132812 131.929688 C 138.042969 131.105469 138.972656 130.304688 139.921875 129.523438 C 140.871094 128.746094 141.835938 127.992188 142.824219 127.257812 C 143.808594 126.527344 144.8125 125.820312 145.832031 125.140625 C 146.851562 124.457031 147.890625 123.800781 148.941406 123.171875 C 149.996094 122.539062 151.0625 121.933594 152.144531 121.355469 C 153.226562 120.777344 154.324219 120.226562 155.433594 119.699219 C 156.542969 119.175781 157.664062 118.679688 158.796875 118.210938 C 159.933594 117.738281 161.078125 117.296875 162.234375 116.882812 C 163.390625 116.46875 164.554688 116.085938 165.730469 115.730469 C 166.902344 115.375 168.085938 115.046875 169.277344 114.746094 C 170.46875 114.449219 171.664062 114.179688 172.867188 113.941406 C 174.070312 113.703125 175.28125 113.492188 176.496094 113.3125 C 177.710938 113.132812 178.925781 112.980469 180.148438 112.859375 C 181.371094 112.742188 182.59375 112.652344 183.820312 112.589844 C 185.046875 112.53125 186.273438 112.5 187.5 112.5 Z M 187.5 112.5 " clip-rule="nonzero"/></clipPath><linearGradient x1="5.374784" gradientTransform="matrix(4.411764, 0, 0, 4.411764, 112.500002, 112.499997)" y1="-1.927215" x2="20.050524" gradientUnits="userSpaceOnUse" y2="39.001801" id="c35e01f725"><stop stop-opacity="1" stop-color="rgb(56.098938%, 0%, 100%)" offset="0"/><stop stop-opacity="1" stop-color="rgb(56.098938%, 0%, 100%)" offset="0.125"/><stop stop-opacity="1" stop-color="rgb(56.098938%, 0%, 100%)" offset="0.140625"/><stop stop-opacity="1" stop-color="rgb(56.359863%, 0%, 100%)" offset="0.144531"/><stop stop-opacity="1" stop-color="rgb(56.620789%, 0%, 100%)" offset="0.148438"/><stop stop-opacity="1" stop-color="rgb(57.028198%, 0%, 100%)" offset="0.152344"/><stop stop-opacity="1" stop-color="rgb(57.437134%, 0%, 100%)" offset="0.15625"/><stop stop-opacity="1" stop-color="rgb(57.844543%, 0%, 100%)" offset="0.160156"/><stop stop-opacity="1" stop-color="rgb(58.253479%, 0%, 100%)" offset="0.164062"/><stop stop-opacity="1" stop-color="rgb(58.660889%, 0%, 100%)" offset="0.167969"/><stop stop-opacity="1" stop-color="rgb(59.068298%, 0%, 100%)" offset="0.171875"/><stop stop-opacity="1" stop-color="rgb(59.475708%, 0%, 100%)" offset="0.175781"/><stop stop-opacity="1" stop-color="rgb(59.884644%, 0%, 100%)" offset="0.179688"/><stop stop-opacity="1" stop-color="rgb(60.292053%, 0%, 100%)" offset="0.183594"/><stop stop-opacity="1" stop-color="rgb(60.700989%, 0%, 100%)" offset="0.1875"/><stop stop-opacity="1" stop-color="rgb(61.108398%, 0%, 100%)" offset="0.191406"/><stop stop-opacity="1" stop-color="rgb(61.517334%, 0%, 100%)" offset="0.195312"/><stop stop-opacity="1" stop-color="rgb(61.924744%, 0%, 100%)" offset="0.199219"/><stop stop-opacity="1" stop-color="rgb(62.333679%, 0%, 100%)" offset="0.203125"/><stop stop-opacity="1" stop-color="rgb(62.741089%, 0%, 100%)" offset="0.207031"/><stop stop-opacity="1" stop-color="rgb(63.150024%, 0%, 100%)" offset="0.210938"/><stop stop-opacity="1" stop-color="rgb(63.557434%, 0%, 100%)" offset="0.214844"/><stop stop-opacity="1" stop-color="rgb(63.96637%, 0%, 100%)" offset="0.21875"/><stop stop-opacity="1" stop-color="rgb(64.373779%, 0%, 100%)" offset="0.222656"/><stop stop-opacity="1" stop-color="rgb(64.782715%, 0%, 100%)" offset="0.226562"/><stop stop-opacity="1" stop-color="rgb(65.190125%, 0%, 100%)" offset="0.230469"/><stop stop-opacity="1" stop-color="rgb(65.59906%, 0%, 100%)" offset="0.234375"/><stop stop-opacity="1" stop-color="rgb(66.00647%, 0%, 100%)" offset="0.238281"/><stop stop-opacity="1" stop-color="rgb(66.415405%, 0%, 100%)" offset="0.242188"/><stop stop-opacity="1" stop-color="rgb(66.822815%, 0%, 100%)" offset="0.246094"/><stop stop-opacity="1" stop-color="rgb(67.23175%, 0%, 100%)" offset="0.25"/><stop stop-opacity="1" stop-color="rgb(67.63916%, 0%, 100%)" offset="0.253906"/><stop stop-opacity="1" stop-color="rgb(68.04657%, 0%, 100%)" offset="0.257812"/><stop stop-opacity="1" stop-color="rgb(68.453979%, 0%, 100%)" offset="0.261719"/><stop stop-opacity="1" stop-color="rgb(68.862915%, 0%, 100%)" offset="0.265625"/><stop stop-opacity="1" stop-color="rgb(69.270325%, 0%, 100%)" offset="0.269531"/><stop stop-opacity="1" stop-color="rgb(69.67926%, 0%, 100%)" offset="0.273438"/><stop stop-opacity="1" stop-color="rgb(70.08667%, 0%, 100%)" offset="0.277344"/><stop stop-opacity="1" stop-color="rgb(70.495605%, 0%, 100%)" offset="0.28125"/><stop stop-opacity="1" stop-color="rgb(70.903015%, 0%, 100%)" offset="0.285156"/><stop stop-opacity="1" stop-color="rgb(71.311951%, 0%, 100%)" offset="0.289062"/><stop stop-opacity="1" stop-color="rgb(71.71936%, 0%, 100%)" offset="0.292969"/><stop stop-opacity="1" stop-color="rgb(72.128296%, 0%, 100%)" offset="0.296875"/><stop stop-opacity="1" stop-color="rgb(72.535706%, 0%, 100%)" offset="0.300781"/><stop stop-opacity="1" stop-color="rgb(72.944641%, 0%, 100%)" offset="0.304688"/><stop stop-opacity="1" stop-color="rgb(73.352051%, 0%, 100%)" offset="0.308594"/><stop stop-opacity="1" stop-color="rgb(73.760986%, 0%, 100%)" offset="0.3125"/><stop stop-opacity="1" stop-color="rgb(74.168396%, 0%, 100%)" offset="0.316406"/><stop stop-opacity="1" stop-color="rgb(74.577332%, 0%, 100%)" offset="0.320312"/><stop stop-opacity="1" stop-color="rgb(74.984741%, 0%, 100%)" offset="0.324219"/><stop stop-opacity="1" stop-color="rgb(75.393677%, 0%, 100%)" offset="0.328125"/><stop stop-opacity="1" stop-color="rgb(75.801086%, 0%, 100%)" offset="0.332031"/><stop stop-opacity="1" stop-color="rgb(76.210022%, 0%, 100%)" offset="0.335938"/><stop stop-opacity="1" stop-color="rgb(76.617432%, 0%, 100%)" offset="0.339844"/><stop stop-opacity="1" stop-color="rgb(77.024841%, 0%, 100%)" offset="0.34375"/><stop stop-opacity="1" stop-color="rgb(77.432251%, 0%, 100%)" offset="0.347656"/><stop stop-opacity="1" stop-color="rgb(77.841187%, 0%, 100%)" offset="0.351562"/><stop stop-opacity="1" stop-color="rgb(78.248596%, 0%, 100%)" offset="0.355469"/><stop stop-opacity="1" stop-color="rgb(78.657532%, 0%, 100%)" offset="0.359375"/><stop stop-opacity="1" stop-color="rgb(79.064941%, 0%, 100%)" offset="0.363281"/><stop stop-opacity="1" stop-color="rgb(79.473877%, 0%, 100%)" offset="0.367188"/><stop stop-opacity="1" stop-color="rgb(79.881287%, 0%, 100%)" offset="0.371094"/><stop stop-opacity="1" stop-color="rgb(80.290222%, 0%, 100%)" offset="0.375"/><stop stop-opacity="1" stop-color="rgb(80.697632%, 0%, 100%)" offset="0.378906"/><stop stop-opacity="1" stop-color="rgb(81.106567%, 0%, 100%)" offset="0.382812"/><stop stop-opacity="1" stop-color="rgb(81.513977%, 0%, 100%)" offset="0.386719"/><stop stop-opacity="1" stop-color="rgb(81.922913%, 0%, 100%)" offset="0.390625"/><stop stop-opacity="1" stop-color="rgb(82.330322%, 0%, 100%)" offset="0.394531"/><stop stop-opacity="1" stop-color="rgb(82.739258%, 0%, 100%)" offset="0.398438"/><stop stop-opacity="1" stop-color="rgb(83.146667%, 0%, 100%)" offset="0.402344"/><stop stop-opacity="1" stop-color="rgb(83.555603%, 0%, 100%)" offset="0.40625"/><stop stop-opacity="1" stop-color="rgb(83.963013%, 0%, 100%)" offset="0.410156"/><stop stop-opacity="1" stop-color="rgb(84.371948%, 0%, 100%)" offset="0.414062"/><stop stop-opacity="1" stop-color="rgb(84.779358%, 0%, 100%)" offset="0.417969"/><stop stop-opacity="1" stop-color="rgb(85.188293%, 0%, 100%)" offset="0.421875"/><stop stop-opacity="1" stop-color="rgb(85.559082%, 0.0869751%, 99.887085%)" offset="0.425781"/><stop stop-opacity="1" stop-color="rgb(85.931396%, 0.17395%, 99.77417%)" offset="0.429688"/><stop stop-opacity="1" stop-color="rgb(86.054993%, 0.857544%, 98.89679%)" offset="0.433594"/><stop stop-opacity="1" stop-color="rgb(86.178589%, 1.542664%, 98.020935%)" offset="0.4375"/><stop stop-opacity="1" stop-color="rgb(86.302185%, 2.226257%, 97.143555%)" offset="0.441406"/><stop stop-opacity="1" stop-color="rgb(86.425781%, 2.911377%, 96.266174%)" offset="0.445312"/><stop stop-opacity="1" stop-color="rgb(86.549377%, 3.594971%, 95.388794%)" offset="0.449219"/><stop stop-opacity="1" stop-color="rgb(86.672974%, 4.278564%, 94.511414%)" offset="0.453125"/><stop stop-opacity="1" stop-color="rgb(86.79657%, 4.962158%, 93.634033%)" offset="0.457031"/><stop stop-opacity="1" stop-color="rgb(86.920166%, 5.647278%, 92.758179%)" offset="0.460938"/><stop stop-opacity="1" stop-color="rgb(87.043762%, 6.330872%, 91.880798%)" offset="0.464844"/><stop stop-opacity="1" stop-color="rgb(87.167358%, 7.015991%, 91.003418%)" offset="0.46875"/><stop stop-opacity="1" stop-color="rgb(87.290955%, 7.699585%, 90.126038%)" offset="0.472656"/><stop stop-opacity="1" stop-color="rgb(87.414551%, 8.383179%, 89.250183%)" offset="0.476562"/><stop stop-opacity="1" stop-color="rgb(87.538147%, 9.066772%, 88.372803%)" offset="0.480469"/><stop stop-opacity="1" stop-color="rgb(87.661743%, 9.751892%, 87.495422%)" offset="0.484375"/><stop stop-opacity="1" stop-color="rgb(87.785339%, 10.435486%, 86.618042%)" offset="0.488281"/><stop stop-opacity="1" stop-color="rgb(87.908936%, 11.120605%, 85.740662%)" offset="0.492188"/><stop stop-opacity="1" stop-color="rgb(88.032532%, 11.804199%, 84.863281%)" offset="0.496094"/><stop stop-opacity="1" stop-color="rgb(88.157654%, 12.489319%, 83.987427%)" offset="0.5"/><stop stop-opacity="1" stop-color="rgb(88.28125%, 13.172913%, 83.110046%)" offset="0.503906"/><stop stop-opacity="1" stop-color="rgb(88.404846%, 13.856506%, 82.232666%)" offset="0.507812"/><stop stop-opacity="1" stop-color="rgb(88.528442%, 14.5401%, 81.355286%)" offset="0.511719"/><stop stop-opacity="1" stop-color="rgb(88.652039%, 15.22522%, 80.479431%)" offset="0.515625"/><stop stop-opacity="1" stop-color="rgb(88.775635%, 15.908813%, 79.602051%)" offset="0.519531"/><stop stop-opacity="1" stop-color="rgb(88.899231%, 16.593933%, 78.72467%)" offset="0.523438"/><stop stop-opacity="1" stop-color="rgb(89.022827%, 17.277527%, 77.84729%)" offset="0.527344"/><stop stop-opacity="1" stop-color="rgb(89.146423%, 17.961121%, 76.96991%)" offset="0.53125"/><stop stop-opacity="1" stop-color="rgb(89.27002%, 18.644714%, 76.092529%)" offset="0.535156"/><stop stop-opacity="1" stop-color="rgb(89.393616%, 19.329834%, 75.216675%)" offset="0.539062"/><stop stop-opacity="1" stop-color="rgb(89.517212%, 20.013428%, 74.339294%)" offset="0.542969"/><stop stop-opacity="1" stop-color="rgb(89.640808%, 20.698547%, 73.461914%)" offset="0.546875"/><stop stop-opacity="1" stop-color="rgb(89.764404%, 21.382141%, 72.584534%)" offset="0.550781"/><stop stop-opacity="1" stop-color="rgb(89.888%, 22.065735%, 71.708679%)" offset="0.554688"/><stop stop-opacity="1" stop-color="rgb(90.011597%, 22.749329%, 70.831299%)" offset="0.558594"/><stop stop-opacity="1" stop-color="rgb(90.135193%, 23.434448%, 69.953918%)" offset="0.5625"/><stop stop-opacity="1" stop-color="rgb(90.258789%, 24.118042%, 69.076538%)" offset="0.566406"/><stop stop-opacity="1" stop-color="rgb(90.382385%, 24.803162%, 68.199158%)" offset="0.570312"/><stop stop-opacity="1" stop-color="rgb(90.505981%, 25.486755%, 67.321777%)" offset="0.574219"/><stop stop-opacity="1" stop-color="rgb(90.629578%, 26.170349%, 66.445923%)" offset="0.578125"/><stop stop-opacity="1" stop-color="rgb(90.753174%, 26.853943%, 65.568542%)" offset="0.582031"/><stop stop-opacity="1" stop-color="rgb(90.878296%, 27.539062%, 64.691162%)" offset="0.585937"/><stop stop-opacity="1" stop-color="rgb(91.001892%, 28.222656%, 63.813782%)" offset="0.589844"/><stop stop-opacity="1" stop-color="rgb(91.125488%, 28.907776%, 62.937927%)" offset="0.59375"/><stop stop-opacity="1" stop-color="rgb(91.249084%, 29.59137%, 62.060547%)" offset="0.597656"/><stop stop-opacity="1" stop-color="rgb(91.372681%, 30.276489%, 61.183167%)" offset="0.601562"/><stop stop-opacity="1" stop-color="rgb(91.496277%, 30.960083%, 60.305786%)" offset="0.605469"/><stop stop-opacity="1" stop-color="rgb(91.619873%, 31.643677%, 59.428406%)" offset="0.609375"/><stop stop-opacity="1" stop-color="rgb(91.743469%, 32.327271%, 58.551025%)" offset="0.613281"/><stop stop-opacity="1" stop-color="rgb(91.867065%, 33.01239%, 57.675171%)" offset="0.617188"/><stop stop-opacity="1" stop-color="rgb(91.990662%, 33.695984%, 56.797791%)" offset="0.621094"/><stop stop-opacity="1" stop-color="rgb(92.114258%, 34.381104%, 55.92041%)" offset="0.625"/><stop stop-opacity="1" stop-color="rgb(92.237854%, 35.064697%, 55.04303%)" offset="0.628906"/><stop stop-opacity="1" stop-color="rgb(92.36145%, 35.748291%, 54.167175%)" offset="0.632812"/><stop stop-opacity="1" stop-color="rgb(92.485046%, 36.431885%, 53.289795%)" offset="0.636719"/><stop stop-opacity="1" stop-color="rgb(92.608643%, 37.117004%, 52.412415%)" offset="0.640625"/><stop stop-opacity="1" stop-color="rgb(92.732239%, 37.800598%, 51.535034%)" offset="0.644531"/><stop stop-opacity="1" stop-color="rgb(92.855835%, 38.485718%, 50.657654%)" offset="0.648438"/><stop stop-opacity="1" stop-color="rgb(92.979431%, 39.169312%, 49.780273%)" offset="0.652344"/><stop stop-opacity="1" stop-color="rgb(93.103027%, 39.852905%, 48.904419%)" offset="0.65625"/><stop stop-opacity="1" stop-color="rgb(93.226624%, 40.536499%, 48.027039%)" offset="0.660156"/><stop stop-opacity="1" stop-color="rgb(93.351746%, 41.221619%, 47.149658%)" offset="0.664063"/><stop stop-opacity="1" stop-color="rgb(93.475342%, 41.905212%, 46.272278%)" offset="0.667969"/><stop stop-opacity="1" stop-color="rgb(93.598938%, 42.590332%, 45.396423%)" offset="0.671875"/><stop stop-opacity="1" stop-color="rgb(93.722534%, 43.273926%, 44.519043%)" offset="0.675781"/><stop stop-opacity="1" stop-color="rgb(93.84613%, 43.95752%, 43.641663%)" offset="0.679688"/><stop stop-opacity="1" stop-color="rgb(93.969727%, 44.641113%, 42.764282%)" offset="0.683594"/><stop stop-opacity="1" stop-color="rgb(94.093323%, 45.326233%, 41.886902%)" offset="0.6875"/><stop stop-opacity="1" stop-color="rgb(94.216919%, 46.009827%, 41.009521%)" offset="0.691406"/><stop stop-opacity="1" stop-color="rgb(94.340515%, 46.694946%, 40.133667%)" offset="0.695312"/><stop stop-opacity="1" stop-color="rgb(94.464111%, 47.37854%, 39.256287%)" offset="0.699219"/><stop stop-opacity="1" stop-color="rgb(94.587708%, 48.062134%, 38.378906%)" offset="0.703125"/><stop stop-opacity="1" stop-color="rgb(94.711304%, 48.745728%, 37.501526%)" offset="0.707031"/><stop stop-opacity="1" stop-color="rgb(94.8349%, 49.430847%, 36.625671%)" offset="0.710937"/><stop stop-opacity="1" stop-color="rgb(94.958496%, 50.114441%, 35.748291%)" offset="0.714844"/><stop stop-opacity="1" stop-color="rgb(95.082092%, 50.799561%, 34.870911%)" offset="0.71875"/><stop stop-opacity="1" stop-color="rgb(95.205688%, 51.483154%, 33.99353%)" offset="0.722656"/><stop stop-opacity="1" stop-color="rgb(95.329285%, 52.168274%, 33.11615%)" offset="0.726562"/><stop stop-opacity="1" stop-color="rgb(95.452881%, 52.851868%, 32.23877%)" offset="0.730469"/><stop stop-opacity="1" stop-color="rgb(95.576477%, 53.535461%, 31.362915%)" offset="0.734375"/><stop stop-opacity="1" stop-color="rgb(95.700073%, 54.219055%, 30.485535%)" offset="0.738281"/><stop stop-opacity="1" stop-color="rgb(95.823669%, 54.904175%, 29.608154%)" offset="0.742188"/><stop stop-opacity="1" stop-color="rgb(95.947266%, 55.587769%, 28.730774%)" offset="0.746094"/><stop stop-opacity="1" stop-color="rgb(96.072388%, 56.272888%, 27.854919%)" offset="0.75"/><stop stop-opacity="1" stop-color="rgb(96.195984%, 56.956482%, 26.977539%)" offset="0.753906"/><stop stop-opacity="1" stop-color="rgb(96.31958%, 57.640076%, 26.100159%)" offset="0.757812"/><stop stop-opacity="1" stop-color="rgb(96.443176%, 58.323669%, 25.222778%)" offset="0.761719"/><stop stop-opacity="1" stop-color="rgb(96.566772%, 59.008789%, 24.345398%)" offset="0.765625"/><stop stop-opacity="1" stop-color="rgb(96.690369%, 59.692383%, 23.468018%)" offset="0.769531"/><stop stop-opacity="1" stop-color="rgb(96.813965%, 60.377502%, 22.592163%)" offset="0.773438"/><stop stop-opacity="1" stop-color="rgb(96.937561%, 61.061096%, 21.714783%)" offset="0.777344"/><stop stop-opacity="1" stop-color="rgb(97.061157%, 61.74469%, 20.837402%)" offset="0.78125"/><stop stop-opacity="1" stop-color="rgb(97.184753%, 62.428284%, 19.960022%)" offset="0.785156"/><stop stop-opacity="1" stop-color="rgb(97.30835%, 63.113403%, 19.084167%)" offset="0.789063"/><stop stop-opacity="1" stop-color="rgb(97.431946%, 63.796997%, 18.206787%)" offset="0.792969"/><stop stop-opacity="1" stop-color="rgb(97.555542%, 64.482117%, 17.329407%)" offset="0.796875"/><stop stop-opacity="1" stop-color="rgb(97.679138%, 65.16571%, 16.452026%)" offset="0.800781"/><stop stop-opacity="1" stop-color="rgb(97.802734%, 65.849304%, 15.574646%)" offset="0.804688"/><stop stop-opacity="1" stop-color="rgb(97.926331%, 66.532898%, 14.697266%)" offset="0.808594"/><stop stop-opacity="1" stop-color="rgb(98.049927%, 67.218018%, 13.821411%)" offset="0.8125"/><stop stop-opacity="1" stop-color="rgb(98.173523%, 67.901611%, 12.944031%)" offset="0.816406"/><stop stop-opacity="1" stop-color="rgb(98.297119%, 68.586731%, 12.06665%)" offset="0.820312"/><stop stop-opacity="1" stop-color="rgb(98.420715%, 69.270325%, 11.18927%)" offset="0.824219"/><stop stop-opacity="1" stop-color="rgb(98.544312%, 69.955444%, 10.313416%)" offset="0.828125"/><stop stop-opacity="1" stop-color="rgb(98.667908%, 70.639038%, 9.436035%)" offset="0.832031"/><stop stop-opacity="1" stop-color="rgb(98.79303%, 71.322632%, 8.558655%)" offset="0.835937"/><stop stop-opacity="1" stop-color="rgb(98.916626%, 72.006226%, 7.681274%)" offset="0.839844"/><stop stop-opacity="1" stop-color="rgb(99.040222%, 72.691345%, 6.803894%)" offset="0.84375"/><stop stop-opacity="1" stop-color="rgb(99.163818%, 73.374939%, 5.926514%)" offset="0.847656"/><stop stop-opacity="1" stop-color="rgb(99.287415%, 74.060059%, 5.050659%)" offset="0.851562"/><stop stop-opacity="1" stop-color="rgb(99.411011%, 74.743652%, 4.173279%)" offset="0.855469"/><stop stop-opacity="1" stop-color="rgb(99.534607%, 75.427246%, 3.295898%)" offset="0.859375"/><stop stop-opacity="1" stop-color="rgb(99.658203%, 76.11084%, 2.418518%)" offset="0.863281"/><stop stop-opacity="1" stop-color="rgb(99.781799%, 76.795959%, 1.542664%)" offset="0.867188"/><stop stop-opacity="1" stop-color="rgb(99.890137%, 77.497864%, 1.225281%)" offset="0.871094"/><stop stop-opacity="1" stop-color="rgb(100%, 78.199768%, 0.909424%)" offset="0.875"/><stop stop-opacity="1" stop-color="rgb(100%, 79.029846%, 4.685974%)" offset="0.878906"/><stop stop-opacity="1" stop-color="rgb(100%, 79.86145%, 8.46405%)" offset="0.882812"/><stop stop-opacity="1" stop-color="rgb(100%, 80.691528%, 12.240601%)" offset="0.886719"/><stop stop-opacity="1" stop-color="rgb(100%, 81.523132%, 16.018677%)" offset="0.890625"/><stop stop-opacity="1" stop-color="rgb(100%, 82.35321%, 19.795227%)" offset="0.894531"/><stop stop-opacity="1" stop-color="rgb(100%, 83.184814%, 23.571777%)" offset="0.898438"/><stop stop-opacity="1" stop-color="rgb(100%, 84.014893%, 27.348328%)" offset="0.902344"/><stop stop-opacity="1" stop-color="rgb(100%, 84.846497%, 31.126404%)" offset="0.90625"/><stop stop-opacity="1" stop-color="rgb(100%, 85.678101%, 34.902954%)" offset="0.910156"/><stop stop-opacity="1" stop-color="rgb(100%, 86.509705%, 38.68103%)" offset="0.914063"/><stop stop-opacity="1" stop-color="rgb(100%, 87.339783%, 42.457581%)" offset="0.917969"/><stop stop-opacity="1" stop-color="rgb(100%, 88.171387%, 46.234131%)" offset="0.921875"/><stop stop-opacity="1" stop-color="rgb(100%, 89.001465%, 50.010681%)" offset="0.925781"/><stop stop-opacity="1" stop-color="rgb(100%, 89.833069%, 53.788757%)" offset="0.929688"/><stop stop-opacity="1" stop-color="rgb(100%, 90.663147%, 57.565308%)" offset="0.933594"/><stop stop-opacity="1" stop-color="rgb(100%, 91.494751%, 61.343384%)" offset="0.9375"/><stop stop-opacity="1" stop-color="rgb(100%, 92.324829%, 65.119934%)" offset="0.941406"/><stop stop-opacity="1" stop-color="rgb(100%, 93.156433%, 68.896484%)" offset="0.945312"/><stop stop-opacity="1" stop-color="rgb(100%, 93.986511%, 72.673035%)" offset="0.949219"/><stop stop-opacity="1" stop-color="rgb(100%, 94.818115%, 76.451111%)" offset="0.953125"/><stop stop-opacity="1" stop-color="rgb(100%, 95.649719%, 80.227661%)" offset="0.957031"/><stop stop-opacity="1" stop-color="rgb(100%, 96.481323%, 84.005737%)" offset="0.960937"/><stop stop-opacity="1" stop-color="rgb(100%, 97.311401%, 87.782288%)" offset="0.964844"/><stop stop-opacity="1" stop-color="rgb(100%, 98.143005%, 91.560364%)" offset="0.96875"/><stop stop-opacity="1" stop-color="rgb(100%, 98.973083%, 95.336914%)" offset="0.972656"/><stop stop-opacity="1" stop-color="rgb(100%, 99.804688%, 99.113464%)" offset="0.976562"/><stop stop-opacity="1" stop-color="rgb(100%, 99.902344%, 99.555969%)" offset="0.980469"/><stop stop-opacity="1" stop-color="rgb(100%, 100%, 100%)" offset="0.984375"/><stop stop-opacity="1" stop-color="rgb(100%, 100%, 100%)" offset="1"/></linearGradient></defs><g clip-path="url(#cf462b5d82)"><g clip-path="url(#c18ad46c37)"><path fill="url(#c35e01f725)" d="M 112.5 112.5 L 112.5 262.5 L 262.5 262.5 L 262.5 112.5 Z M 112.5 112.5 " fill-rule="nonzero"/></g></g><path fill="#ffffff" d="M 187.5 147.792969 C 165.570312 147.792969 147.792969 165.570312 147.792969 187.5 C 147.792969 198.027344 151.890625 207.597656 158.578125 214.703125 C 161.511719 209.027344 167.433594 205.148438 174.265625 205.148438 L 200.734375 205.148438 C 207.566406 205.148438 213.488281 209.027344 216.421875 214.703125 C 223.109375 207.597656 227.207031 198.027344 227.207031 187.5 C 227.207031 165.570312 209.429688 147.792969 187.5 147.792969 Z M 209.304688 220.6875 C 208.363281 216.832031 204.882812 213.96875 200.734375 213.96875 L 174.265625 213.96875 C 170.117188 213.96875 166.636719 216.832031 165.695312 220.6875 C 171.953125 224.808594 179.445312 227.207031 187.5 227.207031 C 195.554688 227.207031 203.046875 224.808594 209.304688 220.6875 Z M 138.96875 187.5 C 138.96875 160.699219 160.699219 138.96875 187.5 138.96875 C 214.300781 138.96875 236.03125 160.699219 236.03125 187.5 C 236.03125 214.300781 214.300781 236.03125 187.5 236.03125 C 160.699219 236.03125 138.96875 214.300781 138.96875 187.5 Z M 187.5 165.441406 C 180.191406 165.441406 174.265625 171.367188 174.265625 178.675781 C 174.265625 185.984375 180.191406 191.910156 187.5 191.910156 C 194.808594 191.910156 200.734375 185.984375 200.734375 178.675781 C 200.734375 171.367188 194.808594 165.441406 187.5 165.441406 Z M 165.441406 178.675781 C 165.441406 166.492188 175.316406 156.617188 187.5 156.617188 C 199.683594 156.617188 209.558594 166.492188 209.558594 178.675781 C 209.558594 190.859375 199.683594 200.734375 187.5 200.734375 C 175.316406 200.734375 165.441406 190.859375 165.441406 178.675781 Z M 165.441406 178.675781 " fill-opacity="1" fill-rule="evenodd"/><g fill="#000000" fill-opacity="1"><g transform="translate(185.474992, 193.124987)"><g><path d="M 2.671875 0 L 1.375 0 L 1.375 -8.5625 L 2.671875 -8.5625 Z M 1.265625 -10.890625 C 1.265625 -11.179688 1.335938 -11.394531 1.484375 -11.53125 C 1.628906 -11.675781 1.8125 -11.75 2.03125 -11.75 C 2.238281 -11.75 2.414062 -11.675781 2.5625 -11.53125 C 2.71875 -11.394531 2.796875 -11.179688 2.796875 -10.890625 C 2.796875 -10.597656 2.71875 -10.378906 2.5625 -10.234375 C 2.414062 -10.085938 2.238281 -10.015625 2.03125 -10.015625 C 1.8125 -10.015625 1.628906 -10.085938 1.484375 -10.234375 C 1.335938 -10.378906 1.265625 -10.597656 1.265625 -10.890625 Z M 1.265625 -10.890625 "/></g></g></g><g fill="#000000" fill-opacity="1"><g transform="translate(116.739841, 293.697228)"><g><path d="M 13.859375 -10.59375 L 15.78125 -10.59375 L 14.4375 -5.859375 C 14.289062 -5.328125 14.164062 -4.820312 14.0625 -4.34375 C 13.96875 -3.875 13.921875 -3.539062 13.921875 -3.34375 C 13.921875 -3.082031 14 -2.882812 14.15625 -2.75 C 14.320312 -2.613281 14.535156 -2.546875 14.796875 -2.546875 C 15.234375 -2.546875 15.671875 -2.710938 16.109375 -3.046875 C 16.546875 -3.390625 16.929688 -3.835938 17.265625 -4.390625 C 17.609375 -4.941406 17.882812 -5.566406 18.09375 -6.265625 C 18.3125 -6.960938 18.421875 -7.675781 18.421875 -8.40625 C 18.421875 -9.3125 18.242188 -10.144531 17.890625 -10.90625 C 17.535156 -11.675781 17.046875 -12.335938 16.421875 -12.890625 C 15.804688 -13.453125 15.070312 -13.894531 14.21875 -14.21875 C 13.363281 -14.539062 12.429688 -14.703125 11.421875 -14.703125 C 10.222656 -14.703125 9.097656 -14.476562 8.046875 -14.03125 C 7.003906 -13.582031 6.097656 -12.96875 5.328125 -12.1875 C 4.566406 -11.40625 3.960938 -10.476562 3.515625 -9.40625 C 3.078125 -8.34375 2.859375 -7.203125 2.859375 -5.984375 C 2.859375 -4.835938 3.054688 -3.789062 3.453125 -2.84375 C 3.847656 -1.894531 4.398438 -1.082031 5.109375 -0.40625 C 5.828125 0.257812 6.6875 0.78125 7.6875 1.15625 C 8.6875 1.53125 9.789062 1.71875 11 1.71875 C 13.25 1.71875 15.34375 1.050781 17.28125 -0.28125 L 17.703125 0.34375 C 16.523438 1.15625 15.382812 1.75 14.28125 2.125 C 13.175781 2.5 11.992188 2.6875 10.734375 2.6875 C 9.304688 2.6875 8 2.472656 6.8125 2.046875 C 5.632812 1.617188 4.617188 1.019531 3.765625 0.25 C 2.910156 -0.519531 2.242188 -1.4375 1.765625 -2.5 C 1.285156 -3.5625 1.046875 -4.726562 1.046875 -6 C 1.046875 -7.34375 1.304688 -8.601562 1.828125 -9.78125 C 2.359375 -10.957031 3.085938 -11.972656 4.015625 -12.828125 C 4.941406 -13.691406 6.023438 -14.367188 7.265625 -14.859375 C 8.515625 -15.347656 9.859375 -15.59375 11.296875 -15.59375 C 12.492188 -15.59375 13.582031 -15.421875 14.5625 -15.078125 C 15.550781 -14.734375 16.394531 -14.25 17.09375 -13.625 C 17.800781 -13 18.347656 -12.242188 18.734375 -11.359375 C 19.117188 -10.484375 19.3125 -9.507812 19.3125 -8.4375 C 19.3125 -7.519531 19.175781 -6.644531 18.90625 -5.8125 C 18.632812 -4.976562 18.265625 -4.242188 17.796875 -3.609375 C 17.328125 -2.972656 16.785156 -2.46875 16.171875 -2.09375 C 15.566406 -1.726562 14.921875 -1.546875 14.234375 -1.546875 C 12.953125 -1.546875 12.253906 -2.3125 12.140625 -3.84375 L 12.0625 -3.84375 C 11.644531 -3.144531 11.128906 -2.585938 10.515625 -2.171875 C 9.898438 -1.753906 9.289062 -1.546875 8.6875 -1.546875 C 8.257812 -1.546875 7.859375 -1.628906 7.484375 -1.796875 C 7.117188 -1.972656 6.800781 -2.207031 6.53125 -2.5 C 6.269531 -2.800781 6.0625 -3.160156 5.90625 -3.578125 C 5.757812 -4.003906 5.6875 -4.460938 5.6875 -4.953125 C 5.6875 -5.691406 5.835938 -6.410156 6.140625 -7.109375 C 6.441406 -7.804688 6.84375 -8.425781 7.34375 -8.96875 C 7.84375 -9.519531 8.410156 -9.960938 9.046875 -10.296875 C 9.679688 -10.628906 10.332031 -10.796875 11 -10.796875 C 11.625 -10.796875 12.125 -10.640625 12.5 -10.328125 C 12.875 -10.015625 13.15625 -9.519531 13.34375 -8.84375 L 13.421875 -8.8125 Z M 11.15625 -9.953125 C 10.71875 -9.953125 10.285156 -9.796875 9.859375 -9.484375 C 9.441406 -9.171875 9.066406 -8.757812 8.734375 -8.25 C 8.398438 -7.75 8.132812 -7.175781 7.9375 -6.53125 C 7.738281 -5.882812 7.640625 -5.222656 7.640625 -4.546875 C 7.640625 -3.140625 8.085938 -2.4375 8.984375 -2.4375 C 9.410156 -2.4375 9.84375 -2.597656 10.28125 -2.921875 C 10.71875 -3.253906 11.113281 -3.679688 11.46875 -4.203125 C 11.820312 -4.722656 12.113281 -5.304688 12.34375 -5.953125 C 12.570312 -6.597656 12.6875 -7.238281 12.6875 -7.875 C 12.6875 -8.53125 12.550781 -9.039062 12.28125 -9.40625 C 12.007812 -9.769531 11.632812 -9.953125 11.15625 -9.953125 Z M 11.15625 -9.953125 "/></g></g></g><g fill="#000000" fill-opacity="1"><g transform="translate(137.311728, 293.697228)"><g><path d="M 4.1875 -3.125 C 4.1875 -2.613281 4.203125 -2.203125 4.234375 -1.890625 C 4.273438 -1.585938 4.359375 -1.347656 4.484375 -1.171875 C 4.617188 -1.003906 4.800781 -0.882812 5.03125 -0.8125 C 5.257812 -0.75 5.566406 -0.710938 5.953125 -0.703125 L 5.953125 0 L 0.4375 0 L 0.4375 -0.703125 C 0.84375 -0.710938 1.164062 -0.753906 1.40625 -0.828125 C 1.644531 -0.898438 1.832031 -1.015625 1.96875 -1.171875 C 2.113281 -1.335938 2.207031 -1.5625 2.25 -1.84375 C 2.289062 -2.132812 2.3125 -2.515625 2.3125 -2.984375 L 2.3125 -11.59375 C 2.3125 -12.320312 2.300781 -12.925781 2.28125 -13.40625 C 2.269531 -13.894531 2.242188 -14.226562 2.203125 -14.40625 C 2.128906 -14.707031 1.96875 -14.910156 1.71875 -15.015625 C 1.476562 -15.128906 1.039062 -15.1875 0.40625 -15.1875 L 0.40625 -15.859375 L 4.1875 -16.59375 Z M 4.1875 -3.125 "/></g></g></g><g fill="#000000" fill-opacity="1"><g transform="translate(143.809168, 293.697228)"><g><path d="M 10.4375 -1.859375 C 9.300781 -0.484375 7.894531 0.203125 6.21875 0.203125 C 5.4375 0.203125 4.722656 0.0703125 4.078125 -0.1875 C 3.441406 -0.445312 2.890625 -0.8125 2.421875 -1.28125 C 1.960938 -1.757812 1.609375 -2.328125 1.359375 -2.984375 C 1.109375 -3.648438 0.984375 -4.382812 0.984375 -5.1875 C 0.984375 -6 1.113281 -6.75 1.375 -7.4375 C 1.644531 -8.132812 2.019531 -8.726562 2.5 -9.21875 C 2.988281 -9.707031 3.570312 -10.09375 4.25 -10.375 C 4.925781 -10.65625 5.660156 -10.796875 6.453125 -10.796875 C 7.753906 -10.796875 8.753906 -10.445312 9.453125 -9.75 C 10.160156 -9.050781 10.515625 -8.046875 10.515625 -6.734375 C 10.515625 -6.546875 10.476562 -6.429688 10.40625 -6.390625 C 10.332031 -6.359375 10.164062 -6.34375 9.90625 -6.34375 L 3.3125 -6.34375 C 3.289062 -6.238281 3.269531 -6.109375 3.25 -5.953125 C 3.238281 -5.796875 3.234375 -5.625 3.234375 -5.4375 C 3.234375 -4.75 3.316406 -4.117188 3.484375 -3.546875 C 3.648438 -2.984375 3.890625 -2.5 4.203125 -2.09375 C 4.523438 -1.695312 4.898438 -1.390625 5.328125 -1.171875 C 5.765625 -0.953125 6.25 -0.84375 6.78125 -0.84375 C 7.34375 -0.84375 7.863281 -0.960938 8.34375 -1.203125 C 8.820312 -1.453125 9.3125 -1.859375 9.8125 -2.421875 Z M 7.140625 -7.265625 C 7.410156 -7.265625 7.625 -7.269531 7.78125 -7.28125 C 7.9375 -7.289062 8.054688 -7.316406 8.140625 -7.359375 C 8.222656 -7.398438 8.273438 -7.457031 8.296875 -7.53125 C 8.328125 -7.601562 8.34375 -7.695312 8.34375 -7.8125 C 8.34375 -8.425781 8.144531 -8.914062 7.75 -9.28125 C 7.351562 -9.65625 6.816406 -9.84375 6.140625 -9.84375 C 4.703125 -9.84375 3.804688 -8.984375 3.453125 -7.265625 Z M 7.140625 -7.265625 "/></g></g></g><g fill="#000000" fill-opacity="1"><g transform="translate(155.264646, 293.697228)"><g><path d="M 10.4375 -1.859375 C 9.300781 -0.484375 7.894531 0.203125 6.21875 0.203125 C 5.4375 0.203125 4.722656 0.0703125 4.078125 -0.1875 C 3.441406 -0.445312 2.890625 -0.8125 2.421875 -1.28125 C 1.960938 -1.757812 1.609375 -2.328125 1.359375 -2.984375 C 1.109375 -3.648438 0.984375 -4.382812 0.984375 -5.1875 C 0.984375 -6 1.113281 -6.75 1.375 -7.4375 C 1.644531 -8.132812 2.019531 -8.726562 2.5 -9.21875 C 2.988281 -9.707031 3.570312 -10.09375 4.25 -10.375 C 4.925781 -10.65625 5.660156 -10.796875 6.453125 -10.796875 C 7.753906 -10.796875 8.753906 -10.445312 9.453125 -9.75 C 10.160156 -9.050781 10.515625 -8.046875 10.515625 -6.734375 C 10.515625 -6.546875 10.476562 -6.429688 10.40625 -6.390625 C 10.332031 -6.359375 10.164062 -6.34375 9.90625 -6.34375 L 3.3125 -6.34375 C 3.289062 -6.238281 3.269531 -6.109375 3.25 -5.953125 C 3.238281 -5.796875 3.234375 -5.625 3.234375 -5.4375 C 3.234375 -4.75 3.316406 -4.117188 3.484375 -3.546875 C 3.648438 -2.984375 3.890625 -2.5 4.203125 -2.09375 C 4.523438 -1.695312 4.898438 -1.390625 5.328125 -1.171875 C 5.765625 -0.953125 6.25 -0.84375 6.78125 -0.84375 C 7.34375 -0.84375 7.863281 -0.960938 8.34375 -1.203125 C 8.820312 -1.453125 9.3125 -1.859375 9.8125 -2.421875 Z M 7.140625 -7.265625 C 7.410156 -7.265625 7.625 -7.269531 7.78125 -7.28125 C 7.9375 -7.289062 8.054688 -7.316406 8.140625 -7.359375 C 8.222656 -7.398438 8.273438 -7.457031 8.296875 -7.53125 C 8.328125 -7.601562 8.34375 -7.695312 8.34375 -7.8125 C 8.34375 -8.425781 8.144531 -8.914062 7.75 -9.28125 C 7.351562 -9.65625 6.816406 -9.84375 6.140625 -9.84375 C 4.703125 -9.84375 3.804688 -8.984375 3.453125 -7.265625 Z M 7.140625 -7.265625 "/></g></g></g><g fill="#000000" fill-opacity="1"><g transform="translate(166.720124, 293.697228)"><g><path d="M 1.71875 0 L 1.28125 0 L 1.28125 -3.4375 L 1.78125 -3.4375 C 2.300781 -1.5625 3.25 -0.625 4.625 -0.625 C 5.15625 -0.625 5.578125 -0.753906 5.890625 -1.015625 C 6.203125 -1.273438 6.359375 -1.671875 6.359375 -2.203125 C 6.359375 -2.398438 6.328125 -2.566406 6.265625 -2.703125 C 6.210938 -2.847656 6.101562 -2.992188 5.9375 -3.140625 C 5.769531 -3.296875 5.535156 -3.472656 5.234375 -3.671875 C 4.929688 -3.878906 4.535156 -4.132812 4.046875 -4.4375 C 3.585938 -4.71875 3.191406 -4.976562 2.859375 -5.21875 C 2.523438 -5.457031 2.242188 -5.695312 2.015625 -5.9375 C 1.796875 -6.1875 1.628906 -6.453125 1.515625 -6.734375 C 1.398438 -7.015625 1.34375 -7.34375 1.34375 -7.71875 C 1.34375 -8.175781 1.414062 -8.59375 1.5625 -8.96875 C 1.71875 -9.351562 1.925781 -9.675781 2.1875 -9.9375 C 2.457031 -10.207031 2.773438 -10.414062 3.140625 -10.5625 C 3.503906 -10.71875 3.894531 -10.796875 4.3125 -10.796875 C 4.675781 -10.796875 5.050781 -10.738281 5.4375 -10.625 C 5.820312 -10.507812 6.160156 -10.363281 6.453125 -10.1875 L 6.859375 -10.59375 L 7.234375 -10.59375 L 7.234375 -7.71875 L 6.71875 -7.71875 C 6.425781 -8.53125 6.101562 -9.109375 5.75 -9.453125 C 5.40625 -9.804688 4.984375 -9.984375 4.484375 -9.984375 C 4.023438 -9.984375 3.660156 -9.863281 3.390625 -9.625 C 3.117188 -9.382812 2.984375 -9.050781 2.984375 -8.625 C 2.984375 -8.394531 3.019531 -8.195312 3.09375 -8.03125 C 3.164062 -7.863281 3.28125 -7.695312 3.4375 -7.53125 C 3.601562 -7.375 3.804688 -7.210938 4.046875 -7.046875 C 4.296875 -6.878906 4.59375 -6.691406 4.9375 -6.484375 C 5.507812 -6.117188 6 -5.796875 6.40625 -5.515625 C 6.8125 -5.234375 7.140625 -4.957031 7.390625 -4.6875 C 7.648438 -4.414062 7.835938 -4.132812 7.953125 -3.84375 C 8.078125 -3.550781 8.140625 -3.21875 8.140625 -2.84375 C 8.140625 -1.894531 7.832031 -1.148438 7.21875 -0.609375 C 6.601562 -0.0664062 5.796875 0.203125 4.796875 0.203125 C 3.753906 0.203125 2.863281 -0.0976562 2.125 -0.703125 Z M 1.71875 0 "/></g></g></g><g fill="#000000" fill-opacity="1"><g transform="translate(175.796547, 293.697228)"><g><path d="M 6.5 -10.796875 C 7.257812 -10.796875 7.976562 -10.660156 8.65625 -10.390625 C 9.34375 -10.117188 9.941406 -9.742188 10.453125 -9.265625 C 10.960938 -8.785156 11.367188 -8.210938 11.671875 -7.546875 C 11.972656 -6.890625 12.125 -6.164062 12.125 -5.375 C 12.125 -4.5625 11.972656 -3.816406 11.671875 -3.140625 C 11.367188 -2.460938 10.960938 -1.875 10.453125 -1.375 C 9.941406 -0.882812 9.34375 -0.5 8.65625 -0.21875 C 7.976562 0.0625 7.257812 0.203125 6.5 0.203125 C 5.75 0.203125 5.035156 0.0664062 4.359375 -0.203125 C 3.691406 -0.484375 3.101562 -0.867188 2.59375 -1.359375 C 2.09375 -1.847656 1.691406 -2.4375 1.390625 -3.125 C 1.097656 -3.8125 0.953125 -4.5625 0.953125 -5.375 C 0.953125 -6.164062 1.097656 -6.894531 1.390625 -7.5625 C 1.691406 -8.226562 2.09375 -8.800781 2.59375 -9.28125 C 3.101562 -9.757812 3.691406 -10.128906 4.359375 -10.390625 C 5.035156 -10.660156 5.75 -10.796875 6.5 -10.796875 Z M 6.5 -9.84375 C 6.007812 -9.84375 5.5625 -9.734375 5.15625 -9.515625 C 4.75 -9.304688 4.398438 -9.003906 4.109375 -8.609375 C 3.828125 -8.210938 3.609375 -7.738281 3.453125 -7.1875 C 3.296875 -6.632812 3.21875 -6.023438 3.21875 -5.359375 C 3.21875 -4.660156 3.296875 -4.03125 3.453125 -3.46875 C 3.609375 -2.914062 3.828125 -2.441406 4.109375 -2.046875 C 4.398438 -1.648438 4.742188 -1.34375 5.140625 -1.125 C 5.535156 -0.914062 5.988281 -0.8125 6.5 -0.8125 C 7.007812 -0.8125 7.46875 -0.914062 7.875 -1.125 C 8.289062 -1.34375 8.644531 -1.648438 8.9375 -2.046875 C 9.226562 -2.453125 9.453125 -2.9375 9.609375 -3.5 C 9.773438 -4.0625 9.859375 -4.679688 9.859375 -5.359375 C 9.859375 -6.023438 9.773438 -6.628906 9.609375 -7.171875 C 9.453125 -7.722656 9.226562 -8.195312 8.9375 -8.59375 C 8.644531 -8.988281 8.289062 -9.296875 7.875 -9.515625 C 7.46875 -9.734375 7.007812 -9.84375 6.5 -9.84375 Z M 6.5 -9.84375 "/></g></g></g><g fill="#000000" fill-opacity="1"><g transform="translate(188.871387, 293.697228)"><g><path d="M 6.5 -10.796875 C 7.257812 -10.796875 7.976562 -10.660156 8.65625 -10.390625 C 9.34375 -10.117188 9.941406 -9.742188 10.453125 -9.265625 C 10.960938 -8.785156 11.367188 -8.210938 11.671875 -7.546875 C 11.972656 -6.890625 12.125 -6.164062 12.125 -5.375 C 12.125 -4.5625 11.972656 -3.816406 11.671875 -3.140625 C 11.367188 -2.460938 10.960938 -1.875 10.453125 -1.375 C 9.941406 -0.882812 9.34375 -0.5 8.65625 -0.21875 C 7.976562 0.0625 7.257812 0.203125 6.5 0.203125 C 5.75 0.203125 5.035156 0.0664062 4.359375 -0.203125 C 3.691406 -0.484375 3.101562 -0.867188 2.59375 -1.359375 C 2.09375 -1.847656 1.691406 -2.4375 1.390625 -3.125 C 1.097656 -3.8125 0.953125 -4.5625 0.953125 -5.375 C 0.953125 -6.164062 1.097656 -6.894531 1.390625 -7.5625 C 1.691406 -8.226562 2.09375 -8.800781 2.59375 -9.28125 C 3.101562 -9.757812 3.691406 -10.128906 4.359375 -10.390625 C 5.035156 -10.660156 5.75 -10.796875 6.5 -10.796875 Z M 6.5 -9.84375 C 6.007812 -9.84375 5.5625 -9.734375 5.15625 -9.515625 C 4.75 -9.304688 4.398438 -9.003906 4.109375 -8.609375 C 3.828125 -8.210938 3.609375 -7.738281 3.453125 -7.1875 C 3.296875 -6.632812 3.21875 -6.023438 3.21875 -5.359375 C 3.21875 -4.660156 3.296875 -4.03125 3.453125 -3.46875 C 3.609375 -2.914062 3.828125 -2.441406 4.109375 -2.046875 C 4.398438 -1.648438 4.742188 -1.34375 5.140625 -1.125 C 5.535156 -0.914062 5.988281 -0.8125 6.5 -0.8125 C 7.007812 -0.8125 7.46875 -0.914062 7.875 -1.125 C 8.289062 -1.34375 8.644531 -1.648438 8.9375 -2.046875 C 9.226562 -2.453125 9.453125 -2.9375 9.609375 -3.5 C 9.773438 -4.0625 9.859375 -4.679688 9.859375 -5.359375 C 9.859375 -6.023438 9.773438 -6.628906 9.609375 -7.171875 C 9.453125 -7.722656 9.226562 -8.195312 8.9375 -8.59375 C 8.644531 -8.988281 8.289062 -9.296875 7.875 -9.515625 C 7.46875 -9.734375 7.007812 -9.84375 6.5 -9.84375 Z M 6.5 -9.84375 "/></g></g></g><g fill="#000000" fill-opacity="1"><g transform="translate(201.946226, 293.697228)"><g><path d="M 4.15625 -3.1875 C 4.15625 -2.632812 4.164062 -2.195312 4.1875 -1.875 C 4.21875 -1.5625 4.289062 -1.320312 4.40625 -1.15625 C 4.519531 -0.988281 4.679688 -0.875 4.890625 -0.8125 C 5.109375 -0.757812 5.410156 -0.722656 5.796875 -0.703125 L 5.796875 0 L 0.484375 0 L 0.484375 -0.703125 C 0.867188 -0.722656 1.171875 -0.757812 1.390625 -0.8125 C 1.617188 -0.875 1.789062 -0.984375 1.90625 -1.140625 C 2.03125 -1.296875 2.109375 -1.523438 2.140625 -1.828125 C 2.179688 -2.128906 2.203125 -2.535156 2.203125 -3.046875 L 2.203125 -11.421875 C 2.203125 -12.203125 2.191406 -12.828125 2.171875 -13.296875 C 2.148438 -13.765625 2.113281 -14.117188 2.0625 -14.359375 C 2.03125 -14.515625 1.984375 -14.644531 1.921875 -14.75 C 1.867188 -14.851562 1.78125 -14.929688 1.65625 -14.984375 C 1.539062 -15.046875 1.378906 -15.085938 1.171875 -15.109375 C 0.972656 -15.140625 0.726562 -15.15625 0.4375 -15.15625 L 0.4375 -15.84375 L 4.125 -16.59375 L 4.125 -8.984375 L 4.203125 -8.984375 C 4.398438 -9.242188 4.648438 -9.484375 4.953125 -9.703125 C 5.253906 -9.929688 5.578125 -10.125 5.921875 -10.28125 C 6.265625 -10.4375 6.625 -10.5625 7 -10.65625 C 7.382812 -10.75 7.757812 -10.796875 8.125 -10.796875 C 8.738281 -10.796875 9.300781 -10.6875 9.8125 -10.46875 C 10.320312 -10.257812 10.71875 -9.976562 11 -9.625 C 11.226562 -9.3125 11.394531 -8.90625 11.5 -8.40625 C 11.601562 -7.90625 11.65625 -7.226562 11.65625 -6.375 L 11.65625 -3.1875 C 11.65625 -2.632812 11.664062 -2.203125 11.6875 -1.890625 C 11.71875 -1.578125 11.789062 -1.332031 11.90625 -1.15625 C 12.019531 -0.988281 12.179688 -0.875 12.390625 -0.8125 C 12.609375 -0.757812 12.910156 -0.722656 13.296875 -0.703125 L 13.296875 0 L 8 0 L 8 -0.703125 C 8.375 -0.710938 8.671875 -0.75 8.890625 -0.8125 C 9.117188 -0.875 9.289062 -0.984375 9.40625 -1.140625 C 9.519531 -1.296875 9.59375 -1.523438 9.625 -1.828125 C 9.664062 -2.128906 9.6875 -2.535156 9.6875 -3.046875 L 9.6875 -5.5625 C 9.6875 -7.050781 9.507812 -8.113281 9.15625 -8.75 C 8.8125 -9.382812 8.234375 -9.703125 7.421875 -9.703125 C 6.796875 -9.703125 6.222656 -9.539062 5.703125 -9.21875 C 5.191406 -8.894531 4.789062 -8.457031 4.5 -7.90625 C 4.4375 -7.757812 4.378906 -7.617188 4.328125 -7.484375 C 4.285156 -7.359375 4.25 -7.210938 4.21875 -7.046875 C 4.195312 -6.890625 4.179688 -6.707031 4.171875 -6.5 C 4.160156 -6.300781 4.15625 -6.046875 4.15625 -5.734375 Z M 4.15625 -3.1875 "/></g></g></g><g fill="#000000" fill-opacity="1"><g transform="translate(215.7008, 293.697228)"><g><path d="M 5.625 3.140625 C 5.007812 4.515625 4.054688 5.203125 2.765625 5.203125 C 1.921875 5.203125 1.5 4.890625 1.5 4.265625 C 1.5 3.929688 1.613281 3.6875 1.84375 3.53125 C 2.082031 3.375 2.515625 3.242188 3.140625 3.140625 C 3.421875 3.097656 3.660156 3.039062 3.859375 2.96875 C 4.054688 2.894531 4.234375 2.800781 4.390625 2.6875 C 4.554688 2.570312 4.703125 2.425781 4.828125 2.25 C 4.953125 2.082031 5.078125 1.875 5.203125 1.625 L 5.90625 0.21875 L 2.0625 -8.125 C 1.882812 -8.5 1.734375 -8.796875 1.609375 -9.015625 C 1.484375 -9.234375 1.347656 -9.40625 1.203125 -9.53125 C 1.066406 -9.65625 0.910156 -9.738281 0.734375 -9.78125 C 0.566406 -9.832031 0.347656 -9.875 0.078125 -9.90625 L 0.078125 -10.59375 L 5.375 -10.59375 L 5.375 -9.90625 C 4.488281 -9.90625 4.046875 -9.679688 4.046875 -9.234375 C 4.046875 -9.066406 4.097656 -8.796875 4.203125 -8.421875 C 4.304688 -8.046875 4.4375 -7.664062 4.59375 -7.28125 L 6.796875 -1.953125 L 6.90625 -1.953125 L 8.71875 -6.453125 C 8.894531 -6.898438 9.035156 -7.257812 9.140625 -7.53125 C 9.253906 -7.8125 9.34375 -8.039062 9.40625 -8.21875 C 9.46875 -8.40625 9.507812 -8.554688 9.53125 -8.671875 C 9.550781 -8.796875 9.5625 -8.910156 9.5625 -9.015625 C 9.5625 -9.367188 9.460938 -9.601562 9.265625 -9.71875 C 9.078125 -9.84375 8.707031 -9.90625 8.15625 -9.90625 L 8.15625 -10.59375 L 12.5625 -10.59375 L 12.5625 -9.90625 C 12.3125 -9.90625 12.097656 -9.867188 11.921875 -9.796875 C 11.742188 -9.734375 11.566406 -9.582031 11.390625 -9.34375 C 11.210938 -9.113281 11.007812 -8.78125 10.78125 -8.34375 C 10.5625 -7.90625 10.296875 -7.3125 9.984375 -6.5625 Z M 5.625 3.140625 "/></g></g></g><g fill="#000000" fill-opacity="1"><g transform="translate(228.475758, 293.697228)"><g><path d="M 9.265625 -7.40625 C 9.265625 -7.945312 9.25 -8.375 9.21875 -8.6875 C 9.195312 -9 9.128906 -9.238281 9.015625 -9.40625 C 8.898438 -9.570312 8.734375 -9.6875 8.515625 -9.75 C 8.296875 -9.8125 7.988281 -9.863281 7.59375 -9.90625 L 7.59375 -10.59375 L 11.21875 -10.59375 L 11.21875 -4.453125 C 11.21875 -3.691406 11.226562 -3.070312 11.25 -2.59375 C 11.269531 -2.113281 11.300781 -1.753906 11.34375 -1.515625 C 11.363281 -1.347656 11.40625 -1.210938 11.46875 -1.109375 C 11.53125 -1.003906 11.617188 -0.921875 11.734375 -0.859375 C 11.859375 -0.804688 12.015625 -0.769531 12.203125 -0.75 C 12.398438 -0.726562 12.648438 -0.71875 12.953125 -0.71875 L 12.953125 -0.015625 L 9.65625 0.21875 L 9.4375 -2.1875 L 9.359375 -2.1875 C 8.847656 -1.351562 8.265625 -0.742188 7.609375 -0.359375 C 6.953125 0.015625 6.265625 0.203125 5.546875 0.203125 C 4.984375 0.203125 4.4375 0.0976562 3.90625 -0.109375 C 3.382812 -0.328125 2.988281 -0.617188 2.71875 -0.984375 C 2.488281 -1.273438 2.320312 -1.679688 2.21875 -2.203125 C 2.125 -2.722656 2.078125 -3.394531 2.078125 -4.21875 L 2.078125 -7.40625 C 2.078125 -7.945312 2.0625 -8.375 2.03125 -8.6875 C 2.007812 -9 1.941406 -9.238281 1.828125 -9.40625 C 1.710938 -9.570312 1.546875 -9.6875 1.328125 -9.75 C 1.109375 -9.8125 0.804688 -9.863281 0.421875 -9.90625 L 0.421875 -10.59375 L 4.046875 -10.59375 L 4.046875 -5.140625 C 4.046875 -3.679688 4.210938 -2.625 4.546875 -1.96875 C 4.890625 -1.320312 5.4375 -1 6.1875 -1 C 7.351562 -1 8.265625 -1.765625 8.921875 -3.296875 C 8.984375 -3.460938 9.035156 -3.609375 9.078125 -3.734375 C 9.117188 -3.867188 9.148438 -4.015625 9.171875 -4.171875 C 9.203125 -4.335938 9.222656 -4.519531 9.234375 -4.71875 C 9.253906 -4.914062 9.265625 -5.15625 9.265625 -5.4375 Z M 9.265625 -7.40625 "/></g></g></g><g fill="#000000" fill-opacity="1"><g transform="translate(241.870471, 293.697228)"><g><path d="M 6.953125 -0.703125 C 7.398438 -0.703125 7.707031 -0.71875 7.875 -0.75 C 8.039062 -0.789062 8.125 -0.847656 8.125 -0.921875 C 8.101562 -1.023438 7.992188 -1.21875 7.796875 -1.5 C 7.597656 -1.78125 7.335938 -2.113281 7.015625 -2.5 L 4.90625 -5.0625 L 4.15625 -4.359375 L 4.15625 -3.1875 C 4.15625 -2.664062 4.175781 -2.242188 4.21875 -1.921875 C 4.269531 -1.609375 4.359375 -1.363281 4.484375 -1.1875 C 4.617188 -1.007812 4.804688 -0.882812 5.046875 -0.8125 C 5.296875 -0.75 5.617188 -0.710938 6.015625 -0.703125 L 6.015625 0 L 0.34375 0 L 0.34375 -0.703125 C 0.738281 -0.710938 1.0625 -0.75 1.3125 -0.8125 C 1.5625 -0.882812 1.753906 -1.003906 1.890625 -1.171875 C 2.023438 -1.347656 2.117188 -1.582031 2.171875 -1.875 C 2.234375 -2.164062 2.265625 -2.554688 2.265625 -3.046875 L 2.265625 -11.421875 C 2.265625 -12.429688 2.253906 -13.195312 2.234375 -13.71875 C 2.210938 -14.238281 2.140625 -14.59375 2.015625 -14.78125 C 1.898438 -14.96875 1.703125 -15.078125 1.421875 -15.109375 C 1.140625 -15.140625 0.765625 -15.15625 0.296875 -15.15625 L 0.296875 -15.84375 L 4.15625 -16.59375 L 4.15625 -5.625 L 6.015625 -7.4375 C 6.617188 -8.039062 7.066406 -8.484375 7.359375 -8.765625 C 7.648438 -9.054688 7.796875 -9.273438 7.796875 -9.421875 C 7.796875 -9.566406 7.65625 -9.679688 7.375 -9.765625 C 7.09375 -9.859375 6.695312 -9.90625 6.1875 -9.90625 L 6.1875 -10.59375 L 11.375 -10.59375 L 11.375 -9.90625 C 11.125 -9.90625 10.90625 -9.890625 10.71875 -9.859375 C 10.53125 -9.828125 10.351562 -9.769531 10.1875 -9.6875 C 10.019531 -9.613281 9.84375 -9.503906 9.65625 -9.359375 C 9.46875 -9.222656 9.253906 -9.050781 9.015625 -8.84375 L 6.140625 -6.28125 L 10.09375 -1.796875 C 10.28125 -1.566406 10.453125 -1.382812 10.609375 -1.25 C 10.765625 -1.113281 10.914062 -1.003906 11.0625 -0.921875 C 11.21875 -0.835938 11.382812 -0.78125 11.5625 -0.75 C 11.75 -0.71875 11.96875 -0.703125 12.21875 -0.703125 L 12.21875 0 L 6.953125 0 Z M 6.953125 -0.703125 "/></g></g></g></svg>