<svg xmlns="http://www.w3.org/2000/svg" xmlns:xlink="http://www.w3.org/1999/xlink" width="500" zoomAndPan="magnify" viewBox="0 0 375 374.999991" height="500" preserveAspectRatio="xMidYMid meet" version="1.0"><defs><g/><clipPath id="4b3ed551fe"><path d="M 157 112.5 L 246 112.5 L 246 238 L 157 238 Z M 157 112.5 " clip-rule="nonzero"/></clipPath><clipPath id="773080186e"><path d="M 122.15625 165 L 174 165 L 174 248 L 122.15625 248 Z M 122.15625 165 " clip-rule="nonzero"/></clipPath><clipPath id="b07df0d257"><path d="M 141 119 L 252.65625 119 L 252.65625 262.5 L 141 262.5 Z M 141 119 " clip-rule="nonzero"/></clipPath></defs><g clip-path="url(#4b3ed551fe)"><path fill="#25f4ee" d="M 187.40625 148.585938 C 187.496094 136.65625 187.40625 124.726562 187.496094 112.796875 L 211.785156 112.796875 C 211.691406 114.90625 211.964844 117.015625 212.332031 119.035156 L 194.460938 119.035156 L 194.460938 215.859375 C 194.554688 219.988281 193.546875 224.117188 191.53125 227.699219 C 188.414062 233.203125 182.457031 236.964844 176.132812 237.515625 C 172.101562 237.792969 168.070312 237.058594 164.402344 235.132812 C 161.65625 233.664062 159.363281 231.550781 157.53125 228.980469 C 163.761719 232.46875 171.828125 232.101562 177.875 228.25 C 183.648438 224.667969 187.496094 217.878906 187.496094 210.996094 C 187.40625 190.070312 187.40625 169.328125 187.40625 148.585938 Z M 227.453125 141.703125 C 230.84375 143.816406 234.601562 145.46875 238.542969 146.386719 C 240.835938 146.933594 243.21875 147.117188 245.601562 147.117188 L 245.601562 152.625 C 238.636719 150.972656 232.21875 147.117188 227.453125 141.703125 Z M 227.453125 141.703125 " fill-opacity="1" fill-rule="nonzero"/></g><g clip-path="url(#773080186e)"><path fill="#25f4ee" d="M 143.507812 172.082031 C 152.214844 166.574219 162.847656 164.371094 173.019531 165.839844 L 173.019531 171.621094 C 170.269531 171.714844 167.609375 172.082031 164.953125 172.539062 C 158.445312 173.917969 152.214844 176.671875 146.808594 180.617188 C 141.035156 184.929688 136.636719 190.804688 133.519531 197.410156 C 130.585938 203.652344 129.121094 210.535156 129.210938 217.417969 C 129.210938 225.035156 131.320312 232.378906 134.894531 239.078125 C 136.542969 242.105469 138.46875 245.132812 141.035156 247.519531 C 135.902344 243.941406 131.59375 239.078125 128.386719 233.570312 C 124.082031 226.320312 121.972656 217.785156 122.15625 209.25 C 122.429688 201.449219 124.722656 193.742188 128.753906 187.042969 C 132.421875 181.074219 137.550781 175.753906 143.507812 172.082031 Z M 143.507812 172.082031 " fill-opacity="1" fill-rule="nonzero"/></g><path fill="#ffffff" d="M 194.460938 119.035156 L 212.515625 119.035156 C 213.15625 122.523438 214.441406 125.828125 216 128.949219 C 218.566406 133.8125 222.140625 138.125 226.722656 140.96875 C 226.996094 141.152344 227.269531 141.429688 227.453125 141.703125 C 232.21875 147.117188 238.636719 150.972656 245.691406 152.535156 C 245.78125 158.867188 245.691406 165.289062 245.691406 171.621094 C 233.777344 171.714844 221.863281 167.953125 212.242188 160.976562 C 212.242188 176.121094 212.242188 191.355469 212.332031 206.496094 C 212.332031 208.515625 212.425781 210.535156 212.332031 212.644531 C 211.785156 219.988281 209.492188 227.332031 205.828125 233.753906 C 202.710938 239.351562 198.3125 244.308594 193.179688 248.070312 C 186.582031 253.027344 178.332031 255.78125 170.085938 255.964844 C 165.871094 256.054688 161.65625 255.871094 157.53125 254.953125 C 151.757812 253.667969 146.257812 251.285156 141.402344 247.886719 L 141.125 247.613281 C 138.742188 245.226562 136.726562 242.199219 134.984375 239.167969 C 131.414062 232.652344 129.304688 225.128906 129.304688 217.511719 C 129.210938 210.628906 130.679688 203.652344 133.613281 197.503906 C 136.636719 190.988281 141.21875 185.023438 146.898438 180.707031 C 152.308594 176.671875 158.445312 173.917969 165.046875 172.632812 C 167.703125 172.082031 170.453125 171.804688 173.109375 171.714844 C 173.203125 174.101562 173.109375 176.578125 173.203125 178.875 L 173.203125 191.171875 C 170.175781 190.160156 166.785156 190.160156 163.578125 190.894531 C 159.820312 191.722656 156.246094 193.464844 153.222656 195.941406 C 151.390625 197.503906 149.832031 199.429688 148.824219 201.542969 C 146.898438 205.121094 146.257812 209.34375 146.714844 213.378906 C 147.175781 217.328125 148.824219 221.089844 151.390625 224.027344 C 153.039062 226.136719 155.332031 227.699219 157.53125 229.164062 C 159.363281 231.734375 161.65625 233.847656 164.402344 235.316406 C 167.976562 237.242188 172.101562 238.066406 176.132812 237.699219 C 182.457031 237.242188 188.324219 233.386719 191.53125 227.882812 C 193.546875 224.300781 194.554688 220.171875 194.460938 216.042969 C 194.554688 183.554688 194.460938 151.25 194.460938 119.035156 Z M 194.460938 119.035156 " fill-opacity="1" fill-rule="nonzero"/><g clip-path="url(#b07df0d257)"><path fill="#fe2c55" d="M 212.425781 119.035156 C 214.53125 119.128906 216.640625 119.035156 218.839844 119.035156 C 218.839844 126.101562 221.039062 133.167969 225.164062 138.949219 C 225.714844 139.683594 226.171875 140.328125 226.722656 140.96875 C 222.046875 138.125 218.382812 133.8125 216 128.949219 C 214.441406 125.917969 213.15625 122.523438 212.425781 119.035156 Z M 245.601562 152.535156 C 247.890625 153.085938 250.273438 153.269531 252.65625 153.269531 L 252.65625 177.863281 C 240.652344 177.957031 228.644531 173.917969 218.839844 166.851562 L 218.839844 215.582031 C 218.929688 219.253906 218.65625 222.925781 217.832031 226.597656 C 215.539062 237.609375 208.941406 247.519531 199.960938 253.945312 C 195.195312 257.433594 189.699219 259.820312 183.921875 261.101562 C 176.957031 262.664062 169.71875 262.570312 162.847656 260.828125 C 154.691406 258.71875 147.175781 254.21875 141.492188 247.980469 C 146.351562 251.46875 151.847656 253.761719 157.621094 255.046875 C 161.746094 255.964844 165.960938 256.238281 170.175781 256.054688 C 178.425781 255.871094 186.582031 253.117188 193.269531 248.164062 C 198.402344 244.402344 202.617188 239.445312 205.917969 233.847656 C 209.582031 227.421875 211.964844 220.171875 212.425781 212.738281 C 212.515625 210.71875 212.515625 208.699219 212.425781 206.589844 C 212.332031 191.355469 212.332031 176.210938 212.332031 161.070312 C 222.046875 168.042969 233.960938 171.804688 245.78125 171.714844 C 245.601562 165.289062 245.691406 158.867188 245.601562 152.535156 Z M 245.601562 152.535156 " fill-opacity="1" fill-rule="nonzero"/></g><path fill="#fe2c55" d="M 173.109375 171.53125 C 175.402344 171.53125 177.875 171.621094 180.167969 171.988281 L 180.167969 197.226562 C 176.777344 196.035156 173.019531 195.941406 169.535156 196.769531 C 162.9375 198.238281 157.347656 203.285156 154.964844 209.710938 C 152.671875 216.042969 153.589844 223.382812 157.621094 228.796875 C 155.332031 227.421875 153.222656 225.769531 151.480469 223.660156 C 148.917969 220.722656 147.265625 216.867188 146.808594 213.011719 C 146.351562 208.976562 146.992188 204.753906 148.917969 201.175781 C 149.925781 199.0625 151.574219 197.136719 153.316406 195.578125 C 156.246094 193.007812 159.914062 191.445312 163.671875 190.527344 C 166.785156 189.792969 170.175781 189.792969 173.292969 190.804688 L 173.292969 178.507812 C 173.109375 176.394531 173.292969 174.007812 173.109375 171.53125 Z M 173.109375 171.53125 " fill-opacity="1" fill-rule="nonzero"/><g fill="#000000" fill-opacity="1"><g transform="translate(185.474992, 193.124987)"><g><path d="M 2.671875 0 L 1.375 0 L 1.375 -8.5625 L 2.671875 -8.5625 Z M 1.265625 -10.890625 C 1.265625 -11.179688 1.335938 -11.394531 1.484375 -11.53125 C 1.628906 -11.675781 1.8125 -11.75 2.03125 -11.75 C 2.238281 -11.75 2.414062 -11.675781 2.5625 -11.53125 C 2.71875 -11.394531 2.796875 -11.179688 2.796875 -10.890625 C 2.796875 -10.597656 2.71875 -10.378906 2.5625 -10.234375 C 2.414062 -10.085938 2.238281 -10.015625 2.03125 -10.015625 C 1.8125 -10.015625 1.628906 -10.085938 1.484375 -10.234375 C 1.335938 -10.378906 1.265625 -10.597656 1.265625 -10.890625 Z M 1.265625 -10.890625 "/></g></g></g><g fill="#000000" fill-opacity="1"><g transform="translate(127.769528, 293.697228)"><g><path d="M 13.859375 -10.59375 L 15.78125 -10.59375 L 14.4375 -5.859375 C 14.289062 -5.328125 14.164062 -4.820312 14.0625 -4.34375 C 13.96875 -3.875 13.921875 -3.539062 13.921875 -3.34375 C 13.921875 -3.082031 14 -2.882812 14.15625 -2.75 C 14.320312 -2.613281 14.535156 -2.546875 14.796875 -2.546875 C 15.234375 -2.546875 15.671875 -2.710938 16.109375 -3.046875 C 16.546875 -3.390625 16.929688 -3.835938 17.265625 -4.390625 C 17.609375 -4.941406 17.882812 -5.566406 18.09375 -6.265625 C 18.3125 -6.960938 18.421875 -7.675781 18.421875 -8.40625 C 18.421875 -9.3125 18.242188 -10.144531 17.890625 -10.90625 C 17.535156 -11.675781 17.046875 -12.335938 16.421875 -12.890625 C 15.804688 -13.453125 15.070312 -13.894531 14.21875 -14.21875 C 13.363281 -14.539062 12.429688 -14.703125 11.421875 -14.703125 C 10.222656 -14.703125 9.097656 -14.476562 8.046875 -14.03125 C 7.003906 -13.582031 6.097656 -12.96875 5.328125 -12.1875 C 4.566406 -11.40625 3.960938 -10.476562 3.515625 -9.40625 C 3.078125 -8.34375 2.859375 -7.203125 2.859375 -5.984375 C 2.859375 -4.835938 3.054688 -3.789062 3.453125 -2.84375 C 3.847656 -1.894531 4.398438 -1.082031 5.109375 -0.40625 C 5.828125 0.257812 6.6875 0.78125 7.6875 1.15625 C 8.6875 1.53125 9.789062 1.71875 11 1.71875 C 13.25 1.71875 15.34375 1.050781 17.28125 -0.28125 L 17.703125 0.34375 C 16.523438 1.15625 15.382812 1.75 14.28125 2.125 C 13.175781 2.5 11.992188 2.6875 10.734375 2.6875 C 9.304688 2.6875 8 2.472656 6.8125 2.046875 C 5.632812 1.617188 4.617188 1.019531 3.765625 0.25 C 2.910156 -0.519531 2.242188 -1.4375 1.765625 -2.5 C 1.285156 -3.5625 1.046875 -4.726562 1.046875 -6 C 1.046875 -7.34375 1.304688 -8.601562 1.828125 -9.78125 C 2.359375 -10.957031 3.085938 -11.972656 4.015625 -12.828125 C 4.941406 -13.691406 6.023438 -14.367188 7.265625 -14.859375 C 8.515625 -15.347656 9.859375 -15.59375 11.296875 -15.59375 C 12.492188 -15.59375 13.582031 -15.421875 14.5625 -15.078125 C 15.550781 -14.734375 16.394531 -14.25 17.09375 -13.625 C 17.800781 -13 18.347656 -12.242188 18.734375 -11.359375 C 19.117188 -10.484375 19.3125 -9.507812 19.3125 -8.4375 C 19.3125 -7.519531 19.175781 -6.644531 18.90625 -5.8125 C 18.632812 -4.976562 18.265625 -4.242188 17.796875 -3.609375 C 17.328125 -2.972656 16.785156 -2.46875 16.171875 -2.09375 C 15.566406 -1.726562 14.921875 -1.546875 14.234375 -1.546875 C 12.953125 -1.546875 12.253906 -2.3125 12.140625 -3.84375 L 12.0625 -3.84375 C 11.644531 -3.144531 11.128906 -2.585938 10.515625 -2.171875 C 9.898438 -1.753906 9.289062 -1.546875 8.6875 -1.546875 C 8.257812 -1.546875 7.859375 -1.628906 7.484375 -1.796875 C 7.117188 -1.972656 6.800781 -2.207031 6.53125 -2.5 C 6.269531 -2.800781 6.0625 -3.160156 5.90625 -3.578125 C 5.757812 -4.003906 5.6875 -4.460938 5.6875 -4.953125 C 5.6875 -5.691406 5.835938 -6.410156 6.140625 -7.109375 C 6.441406 -7.804688 6.84375 -8.425781 7.34375 -8.96875 C 7.84375 -9.519531 8.410156 -9.960938 9.046875 -10.296875 C 9.679688 -10.628906 10.332031 -10.796875 11 -10.796875 C 11.625 -10.796875 12.125 -10.640625 12.5 -10.328125 C 12.875 -10.015625 13.15625 -9.519531 13.34375 -8.84375 L 13.421875 -8.8125 Z M 11.15625 -9.953125 C 10.71875 -9.953125 10.285156 -9.796875 9.859375 -9.484375 C 9.441406 -9.171875 9.066406 -8.757812 8.734375 -8.25 C 8.398438 -7.75 8.132812 -7.175781 7.9375 -6.53125 C 7.738281 -5.882812 7.640625 -5.222656 7.640625 -4.546875 C 7.640625 -3.140625 8.085938 -2.4375 8.984375 -2.4375 C 9.410156 -2.4375 9.84375 -2.597656 10.28125 -2.921875 C 10.71875 -3.253906 11.113281 -3.679688 11.46875 -4.203125 C 11.820312 -4.722656 12.113281 -5.304688 12.34375 -5.953125 C 12.570312 -6.597656 12.6875 -7.238281 12.6875 -7.875 C 12.6875 -8.53125 12.550781 -9.039062 12.28125 -9.40625 C 12.007812 -9.769531 11.632812 -9.953125 11.15625 -9.953125 Z M 11.15625 -9.953125 "/></g></g></g><g fill="#000000" fill-opacity="1"><g transform="translate(148.341414, 293.697228)"><g><path d="M 4.15625 -3.1875 C 4.15625 -2.632812 4.164062 -2.195312 4.1875 -1.875 C 4.21875 -1.5625 4.289062 -1.320312 4.40625 -1.15625 C 4.519531 -0.988281 4.679688 -0.875 4.890625 -0.8125 C 5.109375 -0.757812 5.410156 -0.722656 5.796875 -0.703125 L 5.796875 0 L 0.484375 0 L 0.484375 -0.703125 C 0.867188 -0.722656 1.171875 -0.757812 1.390625 -0.8125 C 1.617188 -0.875 1.789062 -0.984375 1.90625 -1.140625 C 2.03125 -1.296875 2.109375 -1.523438 2.140625 -1.828125 C 2.179688 -2.128906 2.203125 -2.535156 2.203125 -3.046875 L 2.203125 -11.421875 C 2.203125 -12.203125 2.191406 -12.828125 2.171875 -13.296875 C 2.148438 -13.765625 2.113281 -14.117188 2.0625 -14.359375 C 2.03125 -14.515625 1.984375 -14.644531 1.921875 -14.75 C 1.867188 -14.851562 1.78125 -14.929688 1.65625 -14.984375 C 1.539062 -15.046875 1.378906 -15.085938 1.171875 -15.109375 C 0.972656 -15.140625 0.726562 -15.15625 0.4375 -15.15625 L 0.4375 -15.84375 L 4.125 -16.59375 L 4.125 -8.984375 L 4.203125 -8.984375 C 4.398438 -9.242188 4.648438 -9.484375 4.953125 -9.703125 C 5.253906 -9.929688 5.578125 -10.125 5.921875 -10.28125 C 6.265625 -10.4375 6.625 -10.5625 7 -10.65625 C 7.382812 -10.75 7.757812 -10.796875 8.125 -10.796875 C 8.738281 -10.796875 9.300781 -10.6875 9.8125 -10.46875 C 10.320312 -10.257812 10.71875 -9.976562 11 -9.625 C 11.226562 -9.3125 11.394531 -8.90625 11.5 -8.40625 C 11.601562 -7.90625 11.65625 -7.226562 11.65625 -6.375 L 11.65625 -3.1875 C 11.65625 -2.632812 11.664062 -2.203125 11.6875 -1.890625 C 11.71875 -1.578125 11.789062 -1.332031 11.90625 -1.15625 C 12.019531 -0.988281 12.179688 -0.875 12.390625 -0.8125 C 12.609375 -0.757812 12.910156 -0.722656 13.296875 -0.703125 L 13.296875 0 L 8 0 L 8 -0.703125 C 8.375 -0.710938 8.671875 -0.75 8.890625 -0.8125 C 9.117188 -0.875 9.289062 -0.984375 9.40625 -1.140625 C 9.519531 -1.296875 9.59375 -1.523438 9.625 -1.828125 C 9.664062 -2.128906 9.6875 -2.535156 9.6875 -3.046875 L 9.6875 -5.5625 C 9.6875 -7.050781 9.507812 -8.113281 9.15625 -8.75 C 8.8125 -9.382812 8.234375 -9.703125 7.421875 -9.703125 C 6.796875 -9.703125 6.222656 -9.539062 5.703125 -9.21875 C 5.191406 -8.894531 4.789062 -8.457031 4.5 -7.90625 C 4.4375 -7.757812 4.378906 -7.617188 4.328125 -7.484375 C 4.285156 -7.359375 4.25 -7.210938 4.21875 -7.046875 C 4.195312 -6.890625 4.179688 -6.707031 4.171875 -6.5 C 4.160156 -6.300781 4.15625 -6.046875 4.15625 -5.734375 Z M 4.15625 -3.1875 "/></g></g></g><g fill="#000000" fill-opacity="1"><g transform="translate(162.095987, 293.697228)"><g><path d="M 5.625 3.140625 C 5.007812 4.515625 4.054688 5.203125 2.765625 5.203125 C 1.921875 5.203125 1.5 4.890625 1.5 4.265625 C 1.5 3.929688 1.613281 3.6875 1.84375 3.53125 C 2.082031 3.375 2.515625 3.242188 3.140625 3.140625 C 3.421875 3.097656 3.660156 3.039062 3.859375 2.96875 C 4.054688 2.894531 4.234375 2.800781 4.390625 2.6875 C 4.554688 2.570312 4.703125 2.425781 4.828125 2.25 C 4.953125 2.082031 5.078125 1.875 5.203125 1.625 L 5.90625 0.21875 L 2.0625 -8.125 C 1.882812 -8.5 1.734375 -8.796875 1.609375 -9.015625 C 1.484375 -9.234375 1.347656 -9.40625 1.203125 -9.53125 C 1.066406 -9.65625 0.910156 -9.738281 0.734375 -9.78125 C 0.566406 -9.832031 0.347656 -9.875 0.078125 -9.90625 L 0.078125 -10.59375 L 5.375 -10.59375 L 5.375 -9.90625 C 4.488281 -9.90625 4.046875 -9.679688 4.046875 -9.234375 C 4.046875 -9.066406 4.097656 -8.796875 4.203125 -8.421875 C 4.304688 -8.046875 4.4375 -7.664062 4.59375 -7.28125 L 6.796875 -1.953125 L 6.90625 -1.953125 L 8.71875 -6.453125 C 8.894531 -6.898438 9.035156 -7.257812 9.140625 -7.53125 C 9.253906 -7.8125 9.34375 -8.039062 9.40625 -8.21875 C 9.46875 -8.40625 9.507812 -8.554688 9.53125 -8.671875 C 9.550781 -8.796875 9.5625 -8.910156 9.5625 -9.015625 C 9.5625 -9.367188 9.460938 -9.601562 9.265625 -9.71875 C 9.078125 -9.84375 8.707031 -9.90625 8.15625 -9.90625 L 8.15625 -10.59375 L 12.5625 -10.59375 L 12.5625 -9.90625 C 12.3125 -9.90625 12.097656 -9.867188 11.921875 -9.796875 C 11.742188 -9.734375 11.566406 -9.582031 11.390625 -9.34375 C 11.210938 -9.113281 11.007812 -8.78125 10.78125 -8.34375 C 10.5625 -7.90625 10.296875 -7.3125 9.984375 -6.5625 Z M 5.625 3.140625 "/></g></g></g><g fill="#000000" fill-opacity="1"><g transform="translate(174.870946, 293.697228)"><g><path d="M 10.4375 -1.859375 C 9.300781 -0.484375 7.894531 0.203125 6.21875 0.203125 C 5.4375 0.203125 4.722656 0.0703125 4.078125 -0.1875 C 3.441406 -0.445312 2.890625 -0.8125 2.421875 -1.28125 C 1.960938 -1.757812 1.609375 -2.328125 1.359375 -2.984375 C 1.109375 -3.648438 0.984375 -4.382812 0.984375 -5.1875 C 0.984375 -6 1.113281 -6.75 1.375 -7.4375 C 1.644531 -8.132812 2.019531 -8.726562 2.5 -9.21875 C 2.988281 -9.707031 3.570312 -10.09375 4.25 -10.375 C 4.925781 -10.65625 5.660156 -10.796875 6.453125 -10.796875 C 7.753906 -10.796875 8.753906 -10.445312 9.453125 -9.75 C 10.160156 -9.050781 10.515625 -8.046875 10.515625 -6.734375 C 10.515625 -6.546875 10.476562 -6.429688 10.40625 -6.390625 C 10.332031 -6.359375 10.164062 -6.34375 9.90625 -6.34375 L 3.3125 -6.34375 C 3.289062 -6.238281 3.269531 -6.109375 3.25 -5.953125 C 3.238281 -5.796875 3.234375 -5.625 3.234375 -5.4375 C 3.234375 -4.75 3.316406 -4.117188 3.484375 -3.546875 C 3.648438 -2.984375 3.890625 -2.5 4.203125 -2.09375 C 4.523438 -1.695312 4.898438 -1.390625 5.328125 -1.171875 C 5.765625 -0.953125 6.25 -0.84375 6.78125 -0.84375 C 7.34375 -0.84375 7.863281 -0.960938 8.34375 -1.203125 C 8.820312 -1.453125 9.3125 -1.859375 9.8125 -2.421875 Z M 7.140625 -7.265625 C 7.410156 -7.265625 7.625 -7.269531 7.78125 -7.28125 C 7.9375 -7.289062 8.054688 -7.316406 8.140625 -7.359375 C 8.222656 -7.398438 8.273438 -7.457031 8.296875 -7.53125 C 8.328125 -7.601562 8.34375 -7.695312 8.34375 -7.8125 C 8.34375 -8.425781 8.144531 -8.914062 7.75 -9.28125 C 7.351562 -9.65625 6.816406 -9.84375 6.140625 -9.84375 C 4.703125 -9.84375 3.804688 -8.984375 3.453125 -7.265625 Z M 7.140625 -7.265625 "/></g></g></g><g fill="#000000" fill-opacity="1"><g transform="translate(186.326424, 293.697228)"><g><path d="M 6.5 -10.796875 C 7.257812 -10.796875 7.976562 -10.660156 8.65625 -10.390625 C 9.34375 -10.117188 9.941406 -9.742188 10.453125 -9.265625 C 10.960938 -8.785156 11.367188 -8.210938 11.671875 -7.546875 C 11.972656 -6.890625 12.125 -6.164062 12.125 -5.375 C 12.125 -4.5625 11.972656 -3.816406 11.671875 -3.140625 C 11.367188 -2.460938 10.960938 -1.875 10.453125 -1.375 C 9.941406 -0.882812 9.34375 -0.5 8.65625 -0.21875 C 7.976562 0.0625 7.257812 0.203125 6.5 0.203125 C 5.75 0.203125 5.035156 0.0664062 4.359375 -0.203125 C 3.691406 -0.484375 3.101562 -0.867188 2.59375 -1.359375 C 2.09375 -1.847656 1.691406 -2.4375 1.390625 -3.125 C 1.097656 -3.8125 0.953125 -4.5625 0.953125 -5.375 C 0.953125 -6.164062 1.097656 -6.894531 1.390625 -7.5625 C 1.691406 -8.226562 2.09375 -8.800781 2.59375 -9.28125 C 3.101562 -9.757812 3.691406 -10.128906 4.359375 -10.390625 C 5.035156 -10.660156 5.75 -10.796875 6.5 -10.796875 Z M 6.5 -9.84375 C 6.007812 -9.84375 5.5625 -9.734375 5.15625 -9.515625 C 4.75 -9.304688 4.398438 -9.003906 4.109375 -8.609375 C 3.828125 -8.210938 3.609375 -7.738281 3.453125 -7.1875 C 3.296875 -6.632812 3.21875 -6.023438 3.21875 -5.359375 C 3.21875 -4.660156 3.296875 -4.03125 3.453125 -3.46875 C 3.609375 -2.914062 3.828125 -2.441406 4.109375 -2.046875 C 4.398438 -1.648438 4.742188 -1.34375 5.140625 -1.125 C 5.535156 -0.914062 5.988281 -0.8125 6.5 -0.8125 C 7.007812 -0.8125 7.46875 -0.914062 7.875 -1.125 C 8.289062 -1.34375 8.644531 -1.648438 8.9375 -2.046875 C 9.226562 -2.453125 9.453125 -2.9375 9.609375 -3.5 C 9.773438 -4.0625 9.859375 -4.679688 9.859375 -5.359375 C 9.859375 -6.023438 9.773438 -6.628906 9.609375 -7.171875 C 9.453125 -7.722656 9.226562 -8.195312 8.9375 -8.59375 C 8.644531 -8.988281 8.289062 -9.296875 7.875 -9.515625 C 7.46875 -9.734375 7.007812 -9.84375 6.5 -9.84375 Z M 6.5 -9.84375 "/></g></g></g><g fill="#000000" fill-opacity="1"><g transform="translate(199.401264, 293.697228)"><g><path d="M 6.953125 -0.703125 C 7.398438 -0.703125 7.707031 -0.71875 7.875 -0.75 C 8.039062 -0.789062 8.125 -0.847656 8.125 -0.921875 C 8.101562 -1.023438 7.992188 -1.21875 7.796875 -1.5 C 7.597656 -1.78125 7.335938 -2.113281 7.015625 -2.5 L 4.90625 -5.0625 L 4.15625 -4.359375 L 4.15625 -3.1875 C 4.15625 -2.664062 4.175781 -2.242188 4.21875 -1.921875 C 4.269531 -1.609375 4.359375 -1.363281 4.484375 -1.1875 C 4.617188 -1.007812 4.804688 -0.882812 5.046875 -0.8125 C 5.296875 -0.75 5.617188 -0.710938 6.015625 -0.703125 L 6.015625 0 L 0.34375 0 L 0.34375 -0.703125 C 0.738281 -0.710938 1.0625 -0.75 1.3125 -0.8125 C 1.5625 -0.882812 1.753906 -1.003906 1.890625 -1.171875 C 2.023438 -1.347656 2.117188 -1.582031 2.171875 -1.875 C 2.234375 -2.164062 2.265625 -2.554688 2.265625 -3.046875 L 2.265625 -11.421875 C 2.265625 -12.429688 2.253906 -13.195312 2.234375 -13.71875 C 2.210938 -14.238281 2.140625 -14.59375 2.015625 -14.78125 C 1.898438 -14.96875 1.703125 -15.078125 1.421875 -15.109375 C 1.140625 -15.140625 0.765625 -15.15625 0.296875 -15.15625 L 0.296875 -15.84375 L 4.15625 -16.59375 L 4.15625 -5.625 L 6.015625 -7.4375 C 6.617188 -8.039062 7.066406 -8.484375 7.359375 -8.765625 C 7.648438 -9.054688 7.796875 -9.273438 7.796875 -9.421875 C 7.796875 -9.566406 7.65625 -9.679688 7.375 -9.765625 C 7.09375 -9.859375 6.695312 -9.90625 6.1875 -9.90625 L 6.1875 -10.59375 L 11.375 -10.59375 L 11.375 -9.90625 C 11.125 -9.90625 10.90625 -9.890625 10.71875 -9.859375 C 10.53125 -9.828125 10.351562 -9.769531 10.1875 -9.6875 C 10.019531 -9.613281 9.84375 -9.503906 9.65625 -9.359375 C 9.46875 -9.222656 9.253906 -9.050781 9.015625 -8.84375 L 6.140625 -6.28125 L 10.09375 -1.796875 C 10.28125 -1.566406 10.453125 -1.382812 10.609375 -1.25 C 10.765625 -1.113281 10.914062 -1.003906 11.0625 -0.921875 C 11.21875 -0.835938 11.382812 -0.78125 11.5625 -0.75 C 11.75 -0.71875 11.96875 -0.703125 12.21875 -0.703125 L 12.21875 0 L 6.953125 0 Z M 6.953125 -0.703125 "/></g></g></g><g fill="#000000" fill-opacity="1"><g transform="translate(211.71641, 293.697228)"><g><path d="M 1.34375 -1.09375 C 1.34375 -1.46875 1.46875 -1.78125 1.71875 -2.03125 C 1.96875 -2.289062 2.273438 -2.421875 2.640625 -2.421875 C 3.015625 -2.421875 3.328125 -2.289062 3.578125 -2.03125 C 3.828125 -1.78125 3.953125 -1.46875 3.953125 -1.09375 C 3.953125 -0.738281 3.828125 -0.429688 3.578125 -0.171875 C 3.328125 0.078125 3.015625 0.203125 2.640625 0.203125 C 2.273438 0.203125 1.96875 0.078125 1.71875 -0.171875 C 1.46875 -0.429688 1.34375 -0.738281 1.34375 -1.09375 Z M 1.34375 -1.09375 "/></g></g></g><g fill="#000000" fill-opacity="1"><g transform="translate(217.014315, 293.697228)"><g><path d="M 6.5 -10.796875 C 7.257812 -10.796875 7.976562 -10.660156 8.65625 -10.390625 C 9.34375 -10.117188 9.941406 -9.742188 10.453125 -9.265625 C 10.960938 -8.785156 11.367188 -8.210938 11.671875 -7.546875 C 11.972656 -6.890625 12.125 -6.164062 12.125 -5.375 C 12.125 -4.5625 11.972656 -3.816406 11.671875 -3.140625 C 11.367188 -2.460938 10.960938 -1.875 10.453125 -1.375 C 9.941406 -0.882812 9.34375 -0.5 8.65625 -0.21875 C 7.976562 0.0625 7.257812 0.203125 6.5 0.203125 C 5.75 0.203125 5.035156 0.0664062 4.359375 -0.203125 C 3.691406 -0.484375 3.101562 -0.867188 2.59375 -1.359375 C 2.09375 -1.847656 1.691406 -2.4375 1.390625 -3.125 C 1.097656 -3.8125 0.953125 -4.5625 0.953125 -5.375 C 0.953125 -6.164062 1.097656 -6.894531 1.390625 -7.5625 C 1.691406 -8.226562 2.09375 -8.800781 2.59375 -9.28125 C 3.101562 -9.757812 3.691406 -10.128906 4.359375 -10.390625 C 5.035156 -10.660156 5.75 -10.796875 6.5 -10.796875 Z M 6.5 -9.84375 C 6.007812 -9.84375 5.5625 -9.734375 5.15625 -9.515625 C 4.75 -9.304688 4.398438 -9.003906 4.109375 -8.609375 C 3.828125 -8.210938 3.609375 -7.738281 3.453125 -7.1875 C 3.296875 -6.632812 3.21875 -6.023438 3.21875 -5.359375 C 3.21875 -4.660156 3.296875 -4.03125 3.453125 -3.46875 C 3.609375 -2.914062 3.828125 -2.441406 4.109375 -2.046875 C 4.398438 -1.648438 4.742188 -1.34375 5.140625 -1.125 C 5.535156 -0.914062 5.988281 -0.8125 6.5 -0.8125 C 7.007812 -0.8125 7.46875 -0.914062 7.875 -1.125 C 8.289062 -1.34375 8.644531 -1.648438 8.9375 -2.046875 C 9.226562 -2.453125 9.453125 -2.9375 9.609375 -3.5 C 9.773438 -4.0625 9.859375 -4.679688 9.859375 -5.359375 C 9.859375 -6.023438 9.773438 -6.628906 9.609375 -7.171875 C 9.453125 -7.722656 9.226562 -8.195312 8.9375 -8.59375 C 8.644531 -8.988281 8.289062 -9.296875 7.875 -9.515625 C 7.46875 -9.734375 7.007812 -9.84375 6.5 -9.84375 Z M 6.5 -9.84375 "/></g></g></g><g fill="#000000" fill-opacity="1"><g transform="translate(230.089155, 293.697228)"><g><path d="M 6.5 -10.796875 C 7.257812 -10.796875 7.976562 -10.660156 8.65625 -10.390625 C 9.34375 -10.117188 9.941406 -9.742188 10.453125 -9.265625 C 10.960938 -8.785156 11.367188 -8.210938 11.671875 -7.546875 C 11.972656 -6.890625 12.125 -6.164062 12.125 -5.375 C 12.125 -4.5625 11.972656 -3.816406 11.671875 -3.140625 C 11.367188 -2.460938 10.960938 -1.875 10.453125 -1.375 C 9.941406 -0.882812 9.34375 -0.5 8.65625 -0.21875 C 7.976562 0.0625 7.257812 0.203125 6.5 0.203125 C 5.75 0.203125 5.035156 0.0664062 4.359375 -0.203125 C 3.691406 -0.484375 3.101562 -0.867188 2.59375 -1.359375 C 2.09375 -1.847656 1.691406 -2.4375 1.390625 -3.125 C 1.097656 -3.8125 0.953125 -4.5625 0.953125 -5.375 C 0.953125 -6.164062 1.097656 -6.894531 1.390625 -7.5625 C 1.691406 -8.226562 2.09375 -8.800781 2.59375 -9.28125 C 3.101562 -9.757812 3.691406 -10.128906 4.359375 -10.390625 C 5.035156 -10.660156 5.75 -10.796875 6.5 -10.796875 Z M 6.5 -9.84375 C 6.007812 -9.84375 5.5625 -9.734375 5.15625 -9.515625 C 4.75 -9.304688 4.398438 -9.003906 4.109375 -8.609375 C 3.828125 -8.210938 3.609375 -7.738281 3.453125 -7.1875 C 3.296875 -6.632812 3.21875 -6.023438 3.21875 -5.359375 C 3.21875 -4.660156 3.296875 -4.03125 3.453125 -3.46875 C 3.609375 -2.914062 3.828125 -2.441406 4.109375 -2.046875 C 4.398438 -1.648438 4.742188 -1.34375 5.140625 -1.125 C 5.535156 -0.914062 5.988281 -0.8125 6.5 -0.8125 C 7.007812 -0.8125 7.46875 -0.914062 7.875 -1.125 C 8.289062 -1.34375 8.644531 -1.648438 8.9375 -2.046875 C 9.226562 -2.453125 9.453125 -2.9375 9.609375 -3.5 C 9.773438 -4.0625 9.859375 -4.679688 9.859375 -5.359375 C 9.859375 -6.023438 9.773438 -6.628906 9.609375 -7.171875 C 9.453125 -7.722656 9.226562 -8.195312 8.9375 -8.59375 C 8.644531 -8.988281 8.289062 -9.296875 7.875 -9.515625 C 7.46875 -9.734375 7.007812 -9.84375 6.5 -9.84375 Z M 6.5 -9.84375 "/></g></g></g></svg>